<svg width="164" height="164" viewBox="0 0 164 164" fill="none" xmlns="http://www.w3.org/2000/svg">
<g clip-path="url(#clip0_2072_41496)">
<rect width="164" height="164" fill="#052962"/>
<rect x="-17" y="-19" width="388.782" height="184.325" fill="#660505"/>
<path d="M371.782 91.0918L62.2661 164.067H371.782V91.0918Z" fill="url(#paint0_linear_2072_41496)"/>
<path d="M371.782 91.5459L61.0083 165.325L130.897 114.894L305.853 -15.8545H371.782V91.5459Z" fill="url(#paint1_linear_2072_41496)"/>
<path d="M306.985 -16.1944L157.704 -19L102.277 94.8616L64.7827 164.067L306.985 -16.1944Z" fill="url(#paint2_linear_2072_41496)"/>
<path d="M157.889 -18.3708L68.2062 164.067H49.0552L86.1894 -18.3708H157.889Z" fill="url(#paint3_linear_2072_41496)"/>
<path d="M86.1722 -15.8545H13.197L44.9051 164.067H50.0343L86.1722 -15.8545Z" fill="url(#paint4_linear_2072_41496)"/>
<path d="M61.6568 269.314C112.277 269.314 153.314 228.277 153.314 177.657C153.314 127.036 112.277 86 61.6568 86C11.0362 86 -30 127.036 -30 177.657C-30 228.277 11.0362 269.314 61.6568 269.314Z" fill="#F3C100"/>
<path d="M18.0639 127.076L17.2129 124.178H12.1299L11.2329 127.076L12.8659 127.628V128.87H8.01291V127.628L9.09391 127.076L14.1309 112.287H18.0869L23.1239 127.076L24.2969 127.628V128.87H16.4309V127.628L18.0639 127.076ZM14.6599 115.967L12.7279 122.223H16.6379L14.7749 115.967H14.6599ZM30.4054 127.283L32.0384 127.881V128.87H24.8624V127.881L26.1964 127.283V117.968H24.7934V116.91L26.1964 116.266V114.978C26.1964 114.196 26.3267 113.536 26.5874 113C26.8634 112.448 27.2237 112.003 27.6684 111.666C28.1284 111.313 28.6574 111.06 29.2554 110.907C29.8687 110.753 30.5127 110.677 31.1874 110.677C31.7241 110.677 32.2224 110.692 32.6824 110.723C33.1424 110.753 33.6791 110.822 34.2924 110.93V114.357H32.7284L32.1994 112.08C32.0921 112.034 31.9847 112.003 31.8774 111.988C31.7854 111.972 31.6857 111.965 31.5784 111.965C31.1797 111.965 30.8807 112.103 30.6814 112.379C30.4974 112.639 30.4054 113.122 30.4054 113.828V116.266H32.7284V117.968H30.4054V127.283ZM35.0295 117.968H33.2355V116.887L35.0295 116.266V114.012L39.2155 113.345V116.266H41.9985V117.968H39.2155V125.374C39.2155 126.018 39.3305 126.485 39.5605 126.777C39.8058 127.053 40.2735 127.191 40.9635 127.191C41.1628 127.191 41.3698 127.183 41.5845 127.168C41.8145 127.152 41.9985 127.137 42.1365 127.122V128.318C41.7685 128.532 41.2855 128.716 40.6875 128.87C40.1048 129.038 39.4608 129.123 38.7555 129.123C37.5135 129.123 36.5781 128.824 35.9495 128.226C35.3361 127.628 35.0295 126.654 35.0295 125.305V117.968ZM54.6756 122.913H47.2006C47.2619 124.201 47.5763 125.159 48.1436 125.788C48.7109 126.416 49.6846 126.731 51.0646 126.731C51.7239 126.731 52.3066 126.669 52.8126 126.547C53.3186 126.409 53.7939 126.225 54.2386 125.995V127.145C53.9013 127.62 53.3033 128.088 52.4446 128.548C51.6013 128.992 50.5739 129.215 49.3626 129.215C47.2313 129.215 45.6213 128.617 44.5326 127.421C43.4439 126.209 42.8996 124.576 42.8996 122.522C42.8996 120.513 43.4593 118.926 44.5786 117.761C45.7133 116.58 47.2389 115.99 49.1556 115.99C50.9649 115.99 52.3373 116.496 53.2726 117.508C54.2079 118.52 54.6756 120.214 54.6756 122.591V122.913ZM49.0406 117.255C48.4579 117.255 47.9903 117.6 47.6376 118.29C47.3003 118.98 47.1316 120.099 47.1316 121.648L50.6966 121.418C50.6966 119.823 50.5586 118.734 50.2826 118.152C50.0066 117.554 49.5926 117.255 49.0406 117.255ZM55.5424 116.772L60.5794 116.036L60.9934 116.082V118.934H61.1084C61.4457 117.906 61.8751 117.147 62.3964 116.657C62.9331 116.151 63.5617 115.898 64.2824 115.898C64.3897 115.898 64.5047 115.905 64.6274 115.921C64.7501 115.936 64.8421 115.959 64.9034 115.99V119.785C64.7961 119.754 64.6427 119.731 64.4434 119.716C64.2594 119.7 64.0677 119.693 63.8684 119.693C63.3011 119.693 62.7951 119.723 62.3504 119.785C61.9057 119.846 61.4994 119.953 61.1314 120.107V127.306L62.8334 127.881V128.87H55.6114V127.881L56.9224 127.306V118.313L55.5424 117.761V116.772ZM65.6964 127.858L67.0074 127.26V118.29L65.6274 117.738V116.772L70.6414 116.036L71.1474 116.082V117.554H71.2854C71.822 117.078 72.4737 116.695 73.2404 116.404C74.007 116.112 74.7814 115.967 75.5634 115.967C76.652 115.967 77.4494 116.235 77.9554 116.772C78.4614 117.308 78.7144 118.152 78.7144 119.302V127.26L80.0254 127.858V128.87H73.3554V127.858L74.5284 127.329V119.992C74.5284 119.363 74.3904 118.911 74.1144 118.635C73.8537 118.359 73.4627 118.221 72.9414 118.221C72.604 118.221 72.2897 118.259 71.9984 118.336C71.7224 118.412 71.4617 118.504 71.2164 118.612V127.329L72.3664 127.858V128.87H65.6964V127.858ZM87.0729 129.215C86.1222 129.215 85.2482 129.061 84.4509 128.755C83.6536 128.433 82.9712 127.988 82.4039 127.421C81.8366 126.838 81.3919 126.133 81.0699 125.305C80.7632 124.461 80.6099 123.534 80.6099 122.522C80.6099 121.51 80.7632 120.597 81.0699 119.785C81.3766 118.972 81.8136 118.29 82.3809 117.738C82.9482 117.17 83.6229 116.733 84.4049 116.427C85.2022 116.12 86.0839 115.967 87.0499 115.967C88.0159 115.967 88.8976 116.12 89.6949 116.427C90.4922 116.733 91.1746 117.17 91.7419 117.738C92.3092 118.29 92.7462 118.98 93.0529 119.808C93.3749 120.62 93.5359 121.533 93.5359 122.545C93.5359 123.557 93.3826 124.477 93.0759 125.305C92.7692 126.133 92.3322 126.838 91.7649 127.421C91.1976 127.988 90.5152 128.433 89.7179 128.755C88.9206 129.061 88.0389 129.215 87.0729 129.215ZM87.0729 117.278C86.7662 117.278 86.4902 117.354 86.2449 117.508C86.0149 117.661 85.8156 117.937 85.6469 118.336C85.4782 118.734 85.3479 119.279 85.2559 119.969C85.1792 120.643 85.1409 121.502 85.1409 122.545C85.1409 123.603 85.1792 124.477 85.2559 125.167C85.3479 125.857 85.4782 126.401 85.6469 126.8C85.8156 127.198 86.0226 127.482 86.2679 127.651C86.5132 127.804 86.7892 127.881 87.0959 127.881C87.4026 127.881 87.6709 127.804 87.9009 127.651C88.1462 127.482 88.3456 127.198 88.4989 126.8C88.6676 126.386 88.7902 125.834 88.8669 125.144C88.9589 124.454 89.0049 123.58 89.0049 122.522C89.0049 121.479 88.9589 120.62 88.8669 119.946C88.7902 119.256 88.6676 118.719 88.4989 118.336C88.3456 117.937 88.1462 117.661 87.9009 117.508C87.6709 117.354 87.3949 117.278 87.0729 117.278ZM100.684 129.215C99.7336 129.215 98.8596 129.061 98.0622 128.755C97.2649 128.433 96.5826 127.988 96.0152 127.421C95.4479 126.838 95.0032 126.133 94.6812 125.305C94.3746 124.461 94.2212 123.534 94.2212 122.522C94.2212 121.51 94.3746 120.597 94.6812 119.785C94.9879 118.972 95.4249 118.29 95.9922 117.738C96.5596 117.17 97.2342 116.733 98.0162 116.427C98.8136 116.12 99.6952 115.967 100.661 115.967C101.627 115.967 102.509 116.12 103.306 116.427C104.104 116.733 104.786 117.17 105.353 117.738C105.921 118.29 106.358 118.98 106.664 119.808C106.986 120.62 107.147 121.533 107.147 122.545C107.147 123.557 106.994 124.477 106.687 125.305C106.381 126.133 105.944 126.838 105.376 127.421C104.809 127.988 104.127 128.433 103.329 128.755C102.532 129.061 101.65 129.215 100.684 129.215ZM100.684 117.278C100.378 117.278 100.102 117.354 99.8562 117.508C99.6262 117.661 99.4269 117.937 99.2582 118.336C99.0896 118.734 98.9592 119.279 98.8672 119.969C98.7906 120.643 98.7522 121.502 98.7522 122.545C98.7522 123.603 98.7906 124.477 98.8672 125.167C98.9592 125.857 99.0896 126.401 99.2582 126.8C99.4269 127.198 99.6339 127.482 99.8792 127.651C100.125 127.804 100.401 127.881 100.707 127.881C101.014 127.881 101.282 127.804 101.512 127.651C101.758 127.482 101.957 127.198 102.11 126.8C102.279 126.386 102.402 125.834 102.478 125.144C102.57 124.454 102.616 123.58 102.616 122.522C102.616 121.479 102.57 120.62 102.478 119.946C102.402 119.256 102.279 118.719 102.11 118.336C101.957 117.937 101.758 117.661 101.512 117.508C101.282 117.354 101.006 117.278 100.684 117.278ZM107.856 127.858L109.167 127.26V118.29L107.787 117.738V116.772L112.801 116.036L113.307 116.082V117.554H113.445C113.981 117.078 114.633 116.695 115.4 116.404C116.166 116.112 116.941 115.967 117.723 115.967C118.811 115.967 119.609 116.235 120.115 116.772C120.621 117.308 120.874 118.152 120.874 119.302V127.26L122.185 127.858V128.87H115.515V127.858L116.688 127.329V119.992C116.688 119.363 116.55 118.911 116.274 118.635C116.013 118.359 115.622 118.221 115.101 118.221C114.763 118.221 114.449 118.259 114.158 118.336C113.882 118.412 113.621 118.504 113.376 118.612V127.329L114.526 127.858V128.87H107.856V127.858Z" fill="#041F4A"/>
<path d="M33.2393 154.096C30.878 154.096 29.1377 153.59 28.0183 152.578C26.899 151.566 26.3393 150.202 26.3393 148.484V138.962L24.9133 138.41V137.191H32.6643V138.41L31.1924 138.939V148.231C31.1924 149.611 31.4454 150.57 31.9513 151.106C32.4573 151.628 33.2163 151.888 34.2284 151.888C35.1944 151.888 35.9304 151.62 36.4364 151.083C36.9577 150.547 37.2183 149.596 37.2183 148.231V138.939L35.7234 138.41V137.191H40.5764V138.41L39.2653 138.962V148.185C39.2653 149.013 39.1503 149.795 38.9204 150.531C38.7057 151.252 38.3607 151.881 37.8853 152.417C37.41 152.939 36.789 153.353 36.0224 153.659C35.2557 153.951 34.328 154.096 33.2393 154.096ZM54.6103 147.104C54.6103 148.331 54.4493 149.389 54.1273 150.278C53.8206 151.168 53.399 151.896 52.8623 152.463C52.341 153.015 51.72 153.422 50.9993 153.682C50.294 153.943 49.558 154.073 48.7913 154.073C48.3006 154.073 47.8636 154.027 47.4803 153.935C47.097 153.859 46.8133 153.767 46.6293 153.659V157.109L48.1243 157.661V158.696H41.1093V157.661L42.4203 157.109V143.309L41.0633 142.642V141.676L46.1003 140.94L46.6063 140.986V142.435H46.7443C47.0663 142.052 47.5263 141.699 48.1243 141.377C48.7223 141.04 49.443 140.871 50.2863 140.871C50.8843 140.871 51.444 140.986 51.9653 141.216C52.502 141.431 52.962 141.784 53.3453 142.274C53.744 142.765 54.0506 143.409 54.2653 144.206C54.4953 145.004 54.6103 145.97 54.6103 147.104ZM50.2173 147.564C50.2173 145.847 50.018 144.682 49.6193 144.068C49.2206 143.44 48.6686 143.125 47.9633 143.125C47.7026 143.125 47.4573 143.164 47.2273 143.24C46.9973 143.302 46.798 143.378 46.6293 143.47V152.256C46.7826 152.364 46.959 152.463 47.1583 152.555C47.3576 152.632 47.603 152.67 47.8943 152.67C48.615 152.67 49.1823 152.287 49.5963 151.52C50.0103 150.754 50.2173 149.435 50.2173 147.564ZM61.3975 140.917C61.9035 140.917 62.3405 140.956 62.7085 141.032C63.0765 141.109 63.3601 141.201 63.5595 141.308V137.858L62.1795 137.375V136.34L67.2625 135.604L67.7455 135.673V151.796L69.1485 152.463V153.475L64.1345 154.05L63.7435 154.004V152.693H63.6285C63.2605 153.061 62.8081 153.391 62.2715 153.682C61.7348 153.958 61.0755 154.096 60.2935 154.096C58.9288 154.096 57.7941 153.567 56.8895 152.509C56.0001 151.451 55.5555 149.857 55.5555 147.725C55.5555 145.487 56.0921 143.792 57.1655 142.642C58.2388 141.492 59.6495 140.917 61.3975 140.917ZM62.3865 151.98C62.6318 151.98 62.8541 151.95 63.0535 151.888C63.2681 151.827 63.4368 151.75 63.5595 151.658V142.711C63.4061 142.604 63.2221 142.512 63.0075 142.435C62.7928 142.359 62.5245 142.32 62.2025 142.32C61.5278 142.32 60.9835 142.711 60.5695 143.493C60.1708 144.275 59.9715 145.579 59.9715 147.403C59.9715 149.044 60.1708 150.217 60.5695 150.922C60.9835 151.628 61.5891 151.98 62.3865 151.98ZM73.6602 146.943L76.4202 146.414V144.689C76.4202 143.831 76.2669 143.21 75.9602 142.826C75.6536 142.443 75.1322 142.251 74.3962 142.251C74.1816 142.251 73.9822 142.267 73.7982 142.297C73.6296 142.313 73.4609 142.343 73.2922 142.389L72.4412 145.149H70.6012V141.676C71.1992 141.492 71.8816 141.316 72.6482 141.147C73.4149 140.963 74.2889 140.871 75.2702 140.871C76.9569 140.871 78.2679 141.147 79.2032 141.699C80.1539 142.251 80.6292 143.24 80.6292 144.666V152.072L81.8252 152.67V153.498C81.6106 153.652 81.2809 153.782 80.8362 153.889C80.4069 154.012 79.9392 154.073 79.4332 154.073C78.6512 154.073 78.0456 153.943 77.6162 153.682C77.2022 153.406 76.9109 153.046 76.7422 152.601H76.6042C76.2362 153.077 75.7839 153.452 75.2472 153.728C74.7106 153.989 74.0436 154.119 73.2462 154.119C72.1882 154.119 71.3296 153.82 70.6702 153.222C70.0109 152.609 69.6812 151.766 69.6812 150.692C69.6812 149.634 70.0109 148.806 70.6702 148.208C71.3296 147.595 72.3262 147.173 73.6602 146.943ZM75.3162 152.003C75.5616 152.003 75.7762 151.973 75.9602 151.911C76.1596 151.835 76.3129 151.743 76.4202 151.635V147.725L75.4082 147.84C74.8409 147.902 74.4192 148.101 74.1432 148.438C73.8826 148.776 73.7522 149.297 73.7522 150.002C73.7522 150.8 73.8979 151.336 74.1892 151.612C74.4806 151.873 74.8562 152.003 75.3162 152.003ZM83.8014 142.872H82.0074V141.791L83.8014 141.17V138.916L87.9874 138.249V141.17H90.7704V142.872H87.9874V150.278C87.9874 150.922 88.1024 151.39 88.3324 151.681C88.5778 151.957 89.0454 152.095 89.7354 152.095C89.9348 152.095 90.1418 152.088 90.3564 152.072C90.5864 152.057 90.7704 152.042 90.9084 152.026V153.222C90.5404 153.437 90.0574 153.621 89.4594 153.774C88.8768 153.943 88.2328 154.027 87.5274 154.027C86.2854 154.027 85.3501 153.728 84.7214 153.13C84.1081 152.532 83.8014 151.559 83.8014 150.209V142.872ZM103.448 147.817H95.9726C96.0339 149.105 96.3482 150.064 96.9156 150.692C97.4829 151.321 98.4566 151.635 99.8366 151.635C100.496 151.635 101.079 151.574 101.585 151.451C102.091 151.313 102.566 151.129 103.011 150.899V152.049C102.673 152.525 102.075 152.992 101.217 153.452C100.373 153.897 99.3459 154.119 98.1346 154.119C96.0032 154.119 94.3932 153.521 93.3046 152.325C92.2159 151.114 91.6716 149.481 91.6716 147.426C91.6716 145.418 92.2312 143.831 93.3506 142.665C94.4852 141.485 96.0109 140.894 97.9276 140.894C99.7369 140.894 101.109 141.4 102.045 142.412C102.98 143.424 103.448 145.119 103.448 147.495V147.817ZM97.8126 142.159C97.2299 142.159 96.7622 142.504 96.4096 143.194C96.0722 143.884 95.9036 145.004 95.9036 146.552L99.4686 146.322C99.4686 144.728 99.3306 143.639 99.0546 143.056C98.7786 142.458 98.3646 142.159 97.8126 142.159Z" fill="#041F4A"/>
</g>
<defs>
<linearGradient id="paint0_linear_2072_41496" x1="217.024" y1="91.0918" x2="256.342" y2="232.953" gradientUnits="userSpaceOnUse">
<stop stop-color="#FFBAC8"/>
<stop offset="1" stop-color="#EDA087"/>
</linearGradient>
<linearGradient id="paint1_linear_2072_41496" x1="163.866" y1="95.8101" x2="188.4" y2="162.494" gradientUnits="userSpaceOnUse">
<stop stop-color="#FF9081"/>
<stop offset="1" stop-color="#FF725F"/>
</linearGradient>
<linearGradient id="paint2_linear_2072_41496" x1="100.327" y1="89.5191" x2="147.194" y2="122.232" gradientUnits="userSpaceOnUse">
<stop stop-color="#FF5943"/>
<stop offset="1" stop-color="#D13925"/>
</linearGradient>
<linearGradient id="paint3_linear_2072_41496" x1="55.9752" y1="111.223" x2="103.787" y2="140.791" gradientUnits="userSpaceOnUse">
<stop stop-color="#AB0613"/>
<stop offset="1" stop-color="#AB0613" stop-opacity="0.6"/>
</linearGradient>
<linearGradient id="paint4_linear_2072_41496" x1="31.7554" y1="126.007" x2="65.7266" y2="129.152" gradientUnits="userSpaceOnUse">
<stop stop-color="#8B0000"/>
<stop offset="1" stop-color="#8B0000" stop-opacity="0"/>
</linearGradient>
<clipPath id="clip0_2072_41496">
<rect width="164" height="164" fill="white"/>
</clipPath>
</defs>
</svg>
