<svg width="276" height="165" viewBox="0 0 276 165" fill="none" xmlns="http://www.w3.org/2000/svg">
<g clip-path="url(#clip0_2072_41607)">
<rect width="417" height="164.133" fill="#185E36"/>
<rect x="-20" y="-22.8177" width="407" height="188.342" fill="#660505"/>
<path d="M387 89.4136L69.6562 164.234H387V89.4136Z" fill="url(#paint0_linear_2072_41607)"/>
<path d="M387 89.879L68.3657 165.524L140.023 113.817L319.403 -20.2378H387V89.879Z" fill="url(#paint1_linear_2072_41607)"/>
<path d="M320.564 -20.5862L167.508 -23.4628L110.679 93.2787L72.2363 164.235L320.564 -20.5862Z" fill="url(#paint2_linear_2072_41607)"/>
<path d="M167.697 -22.8177L75.7462 164.235H56.1108L94.1843 -22.8177H167.697Z" fill="url(#paint3_linear_2072_41607)"/>
<path d="M94.1661 -20.2378H19.3452L51.8553 164.234H57.1142L94.1661 -20.2378Z" fill="url(#paint4_linear_2072_41607)"/>
<path d="M94.9936 304.159C164.467 304.159 220.786 247.839 220.786 178.366C220.786 108.893 164.467 52.5737 94.9936 52.5737C25.5204 52.5737 -30.7988 108.893 -30.7988 178.366C-30.7988 247.839 25.5204 304.159 94.9936 304.159Z" fill="#F3C100"/>
<path d="M27.4413 114.3L26.1603 109.937H18.5089L17.1586 114.3L19.6168 115.13V117H12.3116V115.13L13.9388 114.3L21.521 92.0377H27.4759L35.0581 114.3L36.8238 115.13V117H24.9832V115.13L27.4413 114.3ZM22.3173 97.5772L19.4091 106.994H25.2948L22.4904 97.5772H22.3173ZM46.0189 114.611L48.477 115.511V117H37.675V115.511L39.6831 114.611V100.589H37.5712V98.9967L39.6831 98.0273V96.0885C39.6831 94.9113 39.8793 93.9188 40.2717 93.111C40.6871 92.2801 41.2295 91.6107 41.8989 91.1029C42.5913 90.572 43.3876 90.1912 44.2878 89.9604C45.211 89.7296 46.1804 89.6142 47.196 89.6142C48.0038 89.6142 48.754 89.6373 49.4464 89.6834C50.1389 89.7296 50.9467 89.8335 51.8699 89.995V95.1537H49.5157L48.7194 91.7261C48.5578 91.6569 48.3962 91.6107 48.2347 91.5876C48.0962 91.5645 47.9461 91.553 47.7846 91.553C47.1845 91.553 46.7344 91.7607 46.4343 92.1762C46.1574 92.5686 46.0189 93.2956 46.0189 94.3574V98.0273H49.5157V100.589H46.0189V114.611ZM52.9795 100.589H50.279V98.9621L52.9795 98.0273V94.6343L59.2806 93.6303V98.0273H63.4699V100.589H59.2806V111.737C59.2806 112.707 59.4537 113.411 59.8 113.849C60.1693 114.265 60.8732 114.473 61.9119 114.473C62.2119 114.473 62.5235 114.461 62.8467 114.438C63.1929 114.415 63.4699 114.392 63.6776 114.369V116.169C63.1236 116.492 62.3966 116.769 61.4964 117C60.6193 117.254 59.6499 117.381 58.5882 117.381C56.7186 117.381 55.3107 116.931 54.3643 116.031C53.4411 115.13 52.9795 113.665 52.9795 111.634V100.589ZM82.5527 108.033H71.3006C71.3929 109.972 71.8661 111.414 72.7201 112.361C73.5741 113.307 75.0398 113.78 77.1171 113.78C78.1095 113.78 78.9866 113.688 79.7483 113.503C80.51 113.295 81.2255 113.018 81.8949 112.672V114.403C81.3871 115.119 80.4869 115.823 79.1944 116.515C77.9249 117.185 76.3785 117.519 74.555 117.519C71.3468 117.519 68.9232 116.619 67.2845 114.819C65.6457 112.995 64.8263 110.537 64.8263 107.444C64.8263 104.421 65.6688 102.032 67.3537 100.278C69.0617 98.5004 71.3583 97.6118 74.2435 97.6118C76.967 97.6118 79.0328 98.3735 80.4407 99.8968C81.8487 101.42 82.5527 103.971 82.5527 107.548V108.033ZM74.0703 99.516C73.1933 99.516 72.4893 100.035 71.9584 101.074C71.4506 102.113 71.1967 103.798 71.1967 106.129L76.5631 105.783C76.5631 103.382 76.3554 101.743 75.9399 100.866C75.5245 99.9661 74.9013 99.516 74.0703 99.516ZM83.8575 98.7889L91.4396 97.6811L92.0628 97.7503V102.043H92.2359C92.7437 100.497 93.39 99.3544 94.1748 98.6158C94.9826 97.8542 95.9289 97.4733 97.0137 97.4733C97.1753 97.4733 97.3484 97.4849 97.5331 97.5079C97.7177 97.531 97.8562 97.5656 97.9485 97.6118V103.324C97.787 103.278 97.5562 103.244 97.2561 103.221C96.9791 103.197 96.6906 103.186 96.3906 103.186C95.5366 103.186 94.7749 103.232 94.1055 103.324C93.4362 103.417 92.8245 103.578 92.2706 103.809V114.646L94.8326 115.511V117H83.9613V115.511L85.9348 114.646V101.109L83.8575 100.278V98.7889ZM99.1422 115.477L101.116 114.576V101.074L99.0383 100.243V98.7889L106.586 97.6811L107.348 97.7503V99.9661H107.555C108.363 99.2506 109.344 98.6735 110.498 98.235C111.652 97.7965 112.818 97.5772 113.995 97.5772C115.634 97.5772 116.834 97.9811 117.596 98.7889C118.357 99.5968 118.738 100.866 118.738 102.597V114.576L120.712 115.477V117H110.671V115.477L112.437 114.68V103.636C112.437 102.69 112.229 102.009 111.814 101.593C111.421 101.178 110.833 100.97 110.048 100.97C109.54 100.97 109.067 101.028 108.629 101.143C108.213 101.259 107.821 101.397 107.451 101.559V114.68L109.182 115.477V117H99.1422V115.477ZM131.32 117.519C129.889 117.519 128.573 117.289 127.373 116.827C126.173 116.342 125.146 115.673 124.292 114.819C123.438 113.942 122.769 112.88 122.284 111.634C121.822 110.364 121.591 108.968 121.591 107.444C121.591 105.921 121.822 104.548 122.284 103.324C122.745 102.101 123.403 101.074 124.257 100.243C125.111 99.3891 126.127 98.7312 127.304 98.2696C128.504 97.808 129.831 97.5772 131.286 97.5772C132.74 97.5772 134.067 97.808 135.267 98.2696C136.467 98.7312 137.494 99.3891 138.348 100.243C139.202 101.074 139.86 102.113 140.322 103.359C140.807 104.582 141.049 105.956 141.049 107.479C141.049 109.002 140.818 110.387 140.356 111.634C139.895 112.88 139.237 113.942 138.383 114.819C137.529 115.673 136.502 116.342 135.302 116.827C134.101 117.289 132.774 117.519 131.32 117.519ZM131.32 99.5506C130.859 99.5506 130.443 99.666 130.074 99.8968C129.728 100.128 129.427 100.543 129.174 101.143C128.92 101.743 128.724 102.563 128.585 103.601C128.47 104.617 128.412 105.909 128.412 107.479C128.412 109.072 128.47 110.387 128.585 111.426C128.724 112.465 128.92 113.284 129.174 113.884C129.427 114.484 129.739 114.911 130.108 115.165C130.478 115.396 130.893 115.511 131.355 115.511C131.816 115.511 132.22 115.396 132.567 115.165C132.936 114.911 133.236 114.484 133.467 113.884C133.721 113.261 133.905 112.43 134.021 111.391C134.159 110.353 134.228 109.037 134.228 107.444C134.228 105.875 134.159 104.582 134.021 103.567C133.905 102.528 133.721 101.72 133.467 101.143C133.236 100.543 132.936 100.128 132.567 99.8968C132.22 99.666 131.805 99.5506 131.32 99.5506ZM151.809 117.519C150.378 117.519 149.063 117.289 147.862 116.827C146.662 116.342 145.635 115.673 144.781 114.819C143.927 113.942 143.258 112.88 142.773 111.634C142.311 110.364 142.08 108.968 142.08 107.444C142.08 105.921 142.311 104.548 142.773 103.324C143.235 102.101 143.892 101.074 144.746 100.243C145.6 99.3891 146.616 98.7312 147.793 98.2696C148.993 97.808 150.32 97.5772 151.775 97.5772C153.229 97.5772 154.556 97.808 155.756 98.2696C156.956 98.7312 157.983 99.3891 158.837 100.243C159.691 101.074 160.349 102.113 160.811 103.359C161.296 104.582 161.538 105.956 161.538 107.479C161.538 109.002 161.307 110.387 160.845 111.634C160.384 112.88 159.726 113.942 158.872 114.819C158.018 115.673 156.991 116.342 155.791 116.827C154.59 117.289 153.263 117.519 151.809 117.519ZM151.809 99.5506C151.348 99.5506 150.932 99.666 150.563 99.8968C150.217 100.128 149.917 100.543 149.663 101.143C149.409 101.743 149.213 102.563 149.074 103.601C148.959 104.617 148.901 105.909 148.901 107.479C148.901 109.072 148.959 110.387 149.074 111.426C149.213 112.465 149.409 113.284 149.663 113.884C149.917 114.484 150.228 114.911 150.597 115.165C150.967 115.396 151.382 115.511 151.844 115.511C152.305 115.511 152.709 115.396 153.056 115.165C153.425 114.911 153.725 114.484 153.956 113.884C154.21 113.261 154.394 112.43 154.51 111.391C154.648 110.353 154.717 109.037 154.717 107.444C154.717 105.875 154.648 104.582 154.51 103.567C154.394 102.528 154.21 101.72 153.956 101.143C153.725 100.543 153.425 100.128 153.056 99.8968C152.709 99.666 152.294 99.5506 151.809 99.5506ZM162.604 115.477L164.578 114.576V101.074L162.5 100.243V98.7889L170.048 97.6811L170.81 97.7503V99.9661H171.017C171.825 99.2506 172.806 98.6735 173.96 98.235C175.114 97.7965 176.28 97.5772 177.457 97.5772C179.096 97.5772 180.296 97.9811 181.058 98.7889C181.819 99.5968 182.2 100.866 182.2 102.597V114.576L184.174 115.477V117H174.133V115.477L175.899 114.68V103.636C175.899 102.69 175.691 102.009 175.276 101.593C174.883 101.178 174.295 100.97 173.51 100.97C173.002 100.97 172.529 101.028 172.091 101.143C171.675 101.259 171.283 101.397 170.913 101.559V114.68L172.644 115.477V117H162.604V115.477Z" fill="#041F4A"/>
<path d="M46.2187 148.582C42.6642 148.582 40.0444 147.821 38.3595 146.297C36.6746 144.774 35.8321 142.72 35.8321 140.135V125.801L33.6856 124.97V123.135H45.3531V124.97L43.1373 125.767V139.754C43.1373 141.831 43.5182 143.274 44.2798 144.082C45.0415 144.866 46.184 145.259 47.7074 145.259C49.1615 145.259 50.2694 144.855 51.0311 144.047C51.8158 143.239 52.2082 141.808 52.2082 139.754V125.767L49.9578 124.97V123.135H57.263V124.97L55.2896 125.801V139.685C55.2896 140.931 55.1164 142.108 54.7702 143.216C54.4471 144.301 53.9278 145.247 53.2123 146.055C52.4967 146.84 51.5619 147.463 50.4079 147.925C49.2538 148.363 47.8574 148.582 46.2187 148.582ZM78.3882 138.057C78.3882 139.904 78.1459 141.497 77.6612 142.835C77.1995 144.174 76.5648 145.27 75.757 146.124C74.9722 146.955 74.0374 147.567 72.9526 147.959C71.8909 148.352 70.783 148.548 69.6289 148.548C68.8903 148.548 68.2325 148.479 67.6555 148.34C67.0784 148.225 66.6514 148.086 66.3745 147.925V153.118L68.6249 153.949V155.507H58.0652V153.949L60.0387 153.118V132.345L57.996 131.341V129.887L65.5782 128.779L66.3399 128.848V131.029H66.5476C67.0323 130.452 67.7247 129.921 68.6249 129.437C69.5251 128.929 70.6099 128.675 71.8793 128.675C72.7795 128.675 73.622 128.848 74.4067 129.194C75.2146 129.517 75.907 130.048 76.484 130.787C77.0841 131.525 77.5458 132.495 77.8689 133.695C78.2151 134.895 78.3882 136.349 78.3882 138.057ZM71.7755 138.75C71.7755 136.165 71.4754 134.411 70.8753 133.487C70.2752 132.541 69.4443 132.068 68.3825 132.068C67.9902 132.068 67.6209 132.126 67.2746 132.241C66.9284 132.333 66.6284 132.449 66.3745 132.587V145.813C66.6053 145.974 66.8707 146.124 67.1708 146.263C67.4708 146.378 67.8401 146.436 68.2787 146.436C69.3635 146.436 70.2175 145.859 70.8407 144.705C71.4639 143.551 71.7755 141.566 71.7755 138.75ZM88.6049 128.744C89.3666 128.744 90.0244 128.802 90.5783 128.917C91.1323 129.033 91.5593 129.171 91.8593 129.333V124.14L89.782 123.412V121.854L97.4334 120.747L98.1605 120.85V145.12L100.272 146.124V147.648L92.7249 148.513L92.1363 148.444V146.471H91.9632C91.4093 147.025 90.7284 147.521 89.9205 147.959C89.1127 148.375 88.1202 148.582 86.9431 148.582C84.8888 148.582 83.1808 147.786 81.819 146.194C80.4803 144.601 79.811 142.201 79.811 138.992C79.811 135.622 80.6188 133.072 82.2345 131.341C83.8502 129.61 85.9736 128.744 88.6049 128.744ZM90.0936 145.397C90.4629 145.397 90.7976 145.351 91.0977 145.259C91.4208 145.166 91.6747 145.051 91.8593 144.913V131.445C91.6285 131.283 91.3516 131.145 91.0284 131.029C90.7053 130.914 90.3014 130.856 89.8167 130.856C88.8011 130.856 87.9817 131.445 87.3585 132.622C86.7584 133.799 86.4583 135.761 86.4583 138.508C86.4583 140.977 86.7584 142.743 87.3585 143.805C87.9817 144.866 88.8934 145.397 90.0936 145.397ZM107.064 137.815L111.219 137.019V134.422C111.219 133.13 110.988 132.195 110.526 131.618C110.065 131.041 109.28 130.752 108.172 130.752C107.849 130.752 107.549 130.775 107.272 130.822C107.018 130.845 106.764 130.891 106.51 130.96L105.229 135.115H102.459V129.887C103.359 129.61 104.387 129.344 105.541 129.09C106.695 128.813 108.01 128.675 109.488 128.675C112.026 128.675 114 129.09 115.408 129.921C116.839 130.752 117.554 132.241 117.554 134.388V145.536L119.355 146.436V147.682C119.032 147.913 118.535 148.109 117.866 148.271C117.22 148.456 116.516 148.548 115.754 148.548C114.577 148.548 113.665 148.352 113.019 147.959C112.396 147.544 111.957 147.001 111.703 146.332H111.496C110.942 147.048 110.261 147.613 109.453 148.029C108.645 148.421 107.641 148.617 106.441 148.617C104.848 148.617 103.556 148.167 102.563 147.267C101.571 146.344 101.074 145.074 101.074 143.458C101.074 141.866 101.571 140.619 102.563 139.719C103.556 138.796 105.056 138.161 107.064 137.815ZM109.557 145.432C109.926 145.432 110.249 145.386 110.526 145.293C110.826 145.178 111.057 145.04 111.219 144.878V138.992L109.695 139.165C108.841 139.258 108.206 139.558 107.791 140.066C107.399 140.573 107.202 141.358 107.202 142.42C107.202 143.62 107.422 144.428 107.86 144.843C108.299 145.236 108.864 145.432 109.557 145.432ZM122.329 131.687H119.629V130.06L122.329 129.125V125.732L128.631 124.728V129.125H132.82V131.687H128.631V142.835C128.631 143.805 128.804 144.509 129.15 144.947C129.519 145.363 130.223 145.57 131.262 145.57C131.562 145.57 131.874 145.559 132.197 145.536C132.543 145.513 132.82 145.49 133.028 145.467V147.267C132.474 147.59 131.747 147.867 130.846 148.098C129.969 148.352 129 148.479 127.938 148.479C126.069 148.479 124.661 148.029 123.714 147.128C122.791 146.228 122.329 144.763 122.329 142.731V131.687ZM151.903 139.131H140.651C140.743 141.07 141.216 142.512 142.07 143.458C142.924 144.405 144.39 144.878 146.467 144.878C147.46 144.878 148.337 144.786 149.098 144.601C149.86 144.393 150.576 144.116 151.245 143.77V145.501C150.737 146.217 149.837 146.921 148.544 147.613C147.275 148.282 145.728 148.617 143.905 148.617C140.697 148.617 138.273 147.717 136.634 145.917C134.996 144.093 134.176 141.635 134.176 138.542C134.176 135.519 135.019 133.13 136.704 131.375C138.412 129.598 140.708 128.71 143.593 128.71C146.317 128.71 148.383 129.471 149.791 130.995C151.199 132.518 151.903 135.068 151.903 138.646V139.131ZM143.42 130.614C142.543 130.614 141.839 131.133 141.308 132.172C140.801 133.21 140.547 134.895 140.547 137.227L145.913 136.88C145.913 134.48 145.705 132.841 145.29 131.964C144.874 131.064 144.251 130.614 143.42 130.614Z" fill="#041F4A"/>
</g>
<defs>
<linearGradient id="paint0_linear_2072_41607" x1="228.328" y1="89.4136" x2="268.641" y2="234.863" gradientUnits="userSpaceOnUse">
<stop stop-color="#FFBAC8"/>
<stop offset="1" stop-color="#EDA087"/>
</linearGradient>
<linearGradient id="paint1_linear_2072_41607" x1="173.825" y1="94.2511" x2="198.98" y2="162.622" gradientUnits="userSpaceOnUse">
<stop stop-color="#FF9081"/>
<stop offset="1" stop-color="#FF725F"/>
</linearGradient>
<linearGradient id="paint2_linear_2072_41607" x1="108.679" y1="87.8011" x2="156.732" y2="121.342" gradientUnits="userSpaceOnUse">
<stop stop-color="#FF5943"/>
<stop offset="1" stop-color="#D13925"/>
</linearGradient>
<linearGradient id="paint3_linear_2072_41607" x1="63.2059" y1="110.054" x2="112.227" y2="140.369" gradientUnits="userSpaceOnUse">
<stop stop-color="#AB0613"/>
<stop offset="1" stop-color="#AB0613" stop-opacity="0.6"/>
</linearGradient>
<linearGradient id="paint4_linear_2072_41607" x1="38.3729" y1="125.211" x2="73.2034" y2="128.437" gradientUnits="userSpaceOnUse">
<stop stop-color="#8B0000"/>
<stop offset="1" stop-color="#8B0000" stop-opacity="0"/>
</linearGradient>
<clipPath id="clip0_2072_41607">
<rect width="417" height="164.133" fill="white"/>
</clipPath>
</defs>
</svg>
