<svg width="164" height="164" viewBox="0 0 164 164" fill="none" xmlns="http://www.w3.org/2000/svg">
<g clip-path="url(#clip0_276_12590)">
<rect width="164" height="164" fill="#041F4A"/>
<path d="M12.9912 26.9737L8.85516 19.7807L23.7808 2.8772L47.1582 4.67544L58.3075 17.8026L77.3691 56.4649V91.3509L45.8994 93.5088L42.4827 70.4912C42.4827 70.4912 29.355 80.0219 23.9602 76.2456C18.5655 72.4693 20.1839 67.4342 19.2848 66.1754C18.3857 64.9167 19.8246 65.636 19.8246 65.636L13.8903 58.0833V49.2719C13.8903 49.2719 7.25852 51.7895 5.81981 48.193C4.38109 44.5965 12.9912 26.9737 12.9912 26.9737Z" fill="#F6A984"/>
<path d="M114.952 73.5482C115.03 77.366 114.074 74.8858 113.524 73.7522L113.164 73.8036C113.216 74.4759 113.425 75.8658 113.873 78.4035C116.031 90.6316 110.997 94.5877 110.997 94.5877C110.997 94.5877 117.33 100.824 120.707 105.377C135.552 125.389 134.014 174.969 134.014 174.969C134.014 174.969 22.3421 174.07 17.8464 174.969C13.3508 175.868 43.5616 115.807 43.5616 115.807L34.7501 99.8026L70.8953 79.8421L113.164 73.8036C113.101 72.991 113.269 73.2271 113.524 73.7522L114.952 73.5482Z" fill="#2A4A5F"/>
<path d="M18.6327 66.1089C22.4091 65.929 24.9267 56.758 24.9267 56.758L14.8564 61.9729C14.8564 61.9729 14.8564 66.2887 18.6327 66.1089Z" fill="#9D2F2F"/>
<path d="M13.6389 57.8362C16.0039 54.8152 24.9266 56.758 24.9266 56.758L14.8563 62.1529C14.8563 62.1529 11.2738 60.8573 13.6389 57.8362Z" fill="#9D2F2F"/>
<path fill-rule="evenodd" clip-rule="evenodd" d="M9.78048 20.5074L14.2715 27.693L47.3382 10.0702L49.3159 16.3641L18.0478 34.5263L22.2708 41.9163C22.5577 42.382 22.7232 42.9304 22.7232 43.5176C22.7232 45.2059 21.3546 46.5746 19.6662 46.5746C18.5911 46.5746 17.6456 46.0196 17.1006 45.1805C17.129 45.2676 17.1489 45.3158 17.1489 45.3158L4.50019 23.5818C4.19713 23.1072 4.02148 22.5434 4.02148 21.9386C4.02148 20.2503 5.39016 18.8816 7.0785 18.8816C8.24974 18.8816 9.26714 19.5403 9.78048 20.5074Z" fill="white"/>
<path d="M14.9907 16.364C12.4732 18.3424 5.2802 23.1974 5.2802 23.1974L4 -0.719299H98.2291C98.2291 -0.719299 96.6107 9.89035 103.264 14.2061C109.918 18.5219 123.229 20.9338 128.8 31.6491C133.413 40.5237 132.756 49.8114 130.778 57.1842C128.8 64.557 122.57 75.5209 112.615 82.5395C104.843 88.0194 99.2799 89.1801 89.7773 89.5526C77.0327 90.0522 68.0183 85.2368 59.5664 78.5833C51.1146 71.9298 47.4251 64.8097 44.1013 53.9474C40.8319 43.2625 43.0219 37.943 43.2018 27.8728C43.3816 17.8026 43.0224 17.2632 42.1442 13.1272C41.2661 8.99123 37.189 7.18025 33.3328 7.73246C24.5425 8.99123 17.5083 14.3857 14.9907 16.364Z" fill="#FEEEF7"/>
<path fill-rule="evenodd" clip-rule="evenodd" d="M4.50016 23.5817C4.19712 23.1072 4.02148 22.5434 4.02148 21.9386C4.02148 20.2503 5.39016 18.8816 7.0785 18.8816C8.24975 18.8816 9.26715 19.5403 9.7805 20.5074L14.2715 27.693L32.3376 20.5L18.0478 34.5263L22.2708 41.9162C22.5577 42.3819 22.7232 42.9304 22.7232 43.5176C22.7232 45.2059 21.3546 46.5746 19.6662 46.5746C18.5911 46.5746 17.6456 46.0196 17.1006 45.1805C17.129 45.2676 17.1489 45.3158 17.1489 45.3158L4.50016 23.5817Z" fill="white"/>
<path d="M116.856 91.3805C116.856 86.3867 119.691 89.5114 119.691 89.5114C119.691 89.5114 121.998 82.5595 127.9 79.079C133.802 75.5985 149.654 77.0681 149.654 77.0681C149.654 77.0681 152.289 93.9214 149.048 102.491C147.371 106.927 142.995 110.965 142.995 110.965L141.179 120.196L119.691 115.202L121.783 99.876C121.783 99.876 116.856 96.3742 116.856 91.3805Z" fill="#FCB57F"/>
<path d="M145.431 102.822L135.668 102.449C135.668 102.449 138.025 100.414 139.59 100.693C140.432 100.844 141.075 100.95 141.075 100.95C141.075 100.95 142.047 100.745 142.647 100.746C143.808 100.749 145.431 102.822 145.431 102.822Z" fill="#9D2F2F"/>
<path d="M145.406 102.765L135.76 102.465C135.76 102.465 137.314 104 140.705 104.691C142.825 105.123 145.406 102.765 145.406 102.765Z" fill="#9D2F2F"/>
<path d="M129.679 117.018L125.29 104.155C125.29 104.155 130.286 108.137 134.067 109.452C137.398 110.61 142.995 110.814 142.995 110.814L141.331 119.742L129.679 117.018Z" fill="black" fill-opacity="0.1"/>
<path d="M142.844 119.893L116.967 112.781C116.967 112.781 119.304 83.2985 111.368 121.406C103.433 159.514 112.125 181.937 112.125 181.937H150.41C150.41 181.937 158.733 165.745 152.831 155.303C146.93 144.862 142.844 119.893 142.844 119.893Z" fill="#ABCABB"/>
<mask id="mask0_276_12590" style="mask-type:alpha" maskUnits="userSpaceOnUse" x="101" y="118" width="47" height="62">
<rect width="45.9499" height="61.7617" transform="matrix(-1 0 0 1 147.004 118.056)" fill="#D9D9D9"/>
</mask>
<g mask="url(#mask0_276_12590)">
<path d="M134.605 152.95C130.908 144.944 126.44 125.816 111.806 133.971C97.171 142.126 110.265 153.84 110.265 153.84L126.44 185.126C126.44 185.126 148.932 186.905 146.775 184.088C144.618 181.271 138.302 160.957 134.605 152.95Z" fill="#9EBFAF"/>
<path d="M133.507 146.941C129.81 138.934 126.201 127.911 123.822 127.911C121.444 127.911 128.633 140.986 131.808 149.32C133.167 152.888 135.206 158.495 135.206 158.495C135.206 158.495 137.453 158.957 137.755 159.344C138.057 159.732 137.204 154.948 133.507 146.941Z" fill="#FEEEF7"/>
</g>
<path d="M139.212 85.5425H120.145L121.507 87.5097C121.507 87.5097 127.615 97.6428 133.159 97.0432C138.105 96.5084 139.817 87.5097 139.817 87.5097H141.633C141.633 87.5097 144.721 96.7712 150.158 95.2884C155.595 93.8055 154.345 84.4832 154.345 84.4832L141.633 85.5425H139.212Z" fill="#313947"/>
<path d="M86.1022 152.718H144.211L140.813 188.059H86.1022V152.718Z" fill="#FEEEF7"/>
<path d="M139.678 81.221C140.919 82.418 142.343 78.4674 142.343 78.4674L141.151 68.2447L123.482 68.2446C123.482 68.2446 120.631 71.8658 116.109 80.8091C111.588 89.7524 110.51 97.1108 110.079 105.143C109.723 111.796 100.547 114.018 102.414 119.076C104.281 124.134 108.695 131.765 113.478 135.929C117.212 139.18 119.461 139.552 123.056 139.049C127.878 138.375 130.496 134.24 132.623 128.849C134.749 123.459 136.824 117.006 136.396 109.051C135.974 101.226 129.002 99.6819 127.39 92.5699C125.779 85.4579 128.547 80.2758 128.24 77.278C127.933 74.2802 130.005 76.5129 131.525 76.5926C134.991 76.7741 138.438 80.0241 139.678 81.221Z" fill="#0F1629"/>
<path d="M147.609 76.7165C134.731 75.3628 122.454 80.4687 117.925 83.1909C116.596 75.7601 119.107 69.5799 123.537 65.5334C125.383 63.4734 133.801 58.029 142.292 62.4434C149.085 65.9749 151.522 74.6565 151.891 78.5558C151.374 78.0899 149.794 77.0696 147.609 76.7165Z" fill="#1E3A4B"/>
<path d="M105.037 98.2104L107.057 87.3341L82.7172 76.9439L80.8342 91.0241L105.037 98.2104Z" fill="#A52E06"/>
<path d="M76.5317 46.2324C80.52 38.6357 83.0692 37.645 85.1782 37.5313C100.716 35.3048 107.956 38.8114 109.831 41.3863C111.064 42.3482 113.78 44.8928 114.78 47.3764C116.029 50.4809 116.598 54.1484 116.891 55.9388C117.318 58.5492 117.318 58.0394 117.526 59.6966L120.207 76.7295C120.207 78.2587 120.406 80.9773 120.371 83.1524C120.287 88.246 111.559 88.0537 107.205 87.3209C103.244 85.9547 93.6768 82.7409 87.1022 80.8154C80.5277 78.8899 75.9878 68.3207 73.8951 63.5962C72.5212 60.777 72.5434 53.829 76.5317 46.2324Z" fill="#A52E06"/>
<path d="M114.383 55.1014L111.632 70.1195C111.554 70.5456 111.691 70.9543 112.118 71.0293C114.043 71.3681 119.786 70.8613 120.841 70.6918C121.741 70.5471 122.424 69.9953 122.274 68.818C121.649 63.8834 115.814 56.393 114.383 55.1014Z" fill="#A52E06"/>
<path d="M92.5122 35.9034C102.981 35.207 108.461 39.1651 109.892 41.2312C107.098 40.7629 102.975 42.4976 101.262 43.4236C102.135 44.5423 104.039 47.5434 104.671 50.5984C98.7742 53.5787 98.8216 59.0745 99.5824 61.4498L104.858 75.2882C105.856 77.9052 107.887 79.9934 110.486 81.0356C113.57 82.2718 117.381 83.7844 119.997 84.8312C119.373 87.2206 115.586 87.6438 114.037 87.6077L110.165 86.0329C107.628 85.0007 105.613 82.9919 104.574 80.4567C101.292 72.4419 96.7587 61.3596 96.6221 60.9664C96.4207 60.386 85.348 54.4945 84.632 64.0575C84.0592 71.7079 82.6233 75.0574 81.1058 76.4895C78.8159 74.3007 76.8171 71.0636 74.8455 68.3728C72.1195 64.6523 71.5189 60.4426 71.1438 58.7559C70.7686 57.0691 71.095 46.4938 76.836 41.2686C82.5769 36.0434 83.9192 35.9982 92.5122 35.9034Z" fill="#320F03"/>
<path d="M111.645 94.9535L78.7333 78.9771C78.7333 78.9771 69.2176 91.4158 64.7655 100.331C48.0292 133.844 63.5557 196.244 63.5557 196.244C63.5557 196.244 111.006 206.789 114.041 191.292C117.077 175.794 110.846 107.575 110.846 107.575L115.319 108.853L111.645 94.9535Z" fill="#E4E5E8"/>
<path d="M76.9756 91.5985L110.846 107.575L111.485 114.764L76.9756 91.5985Z" fill="#C3C9DA"/>
<path d="M97.9051 139.528H77.9345H77.1357L81.2896 193.369H106.532C106.532 193.369 101.1 184.102 99.5027 179.629C97.9051 175.155 97.9051 139.528 97.9051 139.528Z" fill="#A52E06"/>
<path d="M152.339 82.7829C155.319 84.9485 161.817 88.884 161.767 86.3717C160.332 84.4872 155.996 80.9454 152.339 82.7829Z" fill="#1E3A4B"/>
<path d="M149.102 83.63C137.418 86.5015 131.401 81.7609 128.301 78.8143C138.115 75.1793 145.362 76.3616 147.388 76.483C149.009 76.5801 150.971 77.7908 151.749 78.384C154.252 80.0003 159.758 83.8911 161.765 86.5239C159.44 84.3139 156.56 81.9467 149.102 83.63Z" fill="#2B4A5E"/>
</g>
<defs>
<clipPath id="clip0_276_12590">
<rect width="164" height="164" fill="white"/>
</clipPath>
</defs>
</svg>
