<svg width="274" height="164" viewBox="0 0 274 164" fill="none" xmlns="http://www.w3.org/2000/svg">
<g clip-path="url(#clip0_276_12331)">
<rect width="273.333" height="164" fill="#041F4A"/>
<path d="M218.754 91.3805C218.754 86.3867 221.589 89.5114 221.589 89.5114C221.589 89.5114 223.896 82.5595 229.798 79.079C235.7 75.5985 251.551 77.0681 251.551 77.0681C251.551 77.0681 254.187 93.9214 250.946 102.491C249.268 106.927 244.893 110.965 244.893 110.965L243.077 120.196L221.589 115.202L223.681 99.876C223.681 99.876 218.754 96.3742 218.754 91.3805Z" fill="#FCB57F"/>
<path d="M247.328 102.822L237.566 102.449C237.566 102.449 239.922 100.414 241.488 100.693C242.33 100.844 242.973 100.95 242.973 100.95C242.973 100.95 243.944 100.745 244.545 100.746C245.706 100.749 247.328 102.822 247.328 102.822Z" fill="#9D2F2F"/>
<path d="M247.304 102.765L237.657 102.465C237.657 102.465 239.212 104 242.603 104.691C244.723 105.123 247.304 102.765 247.304 102.765Z" fill="#9D2F2F"/>
<path d="M231.576 117.018L227.188 104.155C227.188 104.155 232.184 108.137 235.965 109.452C239.296 110.61 244.893 110.814 244.893 110.814L243.229 119.742L231.576 117.018Z" fill="black" fill-opacity="0.1"/>
<path d="M244.742 119.893L218.865 112.781C218.865 112.781 221.201 83.2985 213.266 121.406C205.331 159.514 214.023 181.937 214.023 181.937H252.308C252.308 181.937 260.631 165.745 254.729 155.303C248.828 144.862 244.742 119.893 244.742 119.893Z" fill="#ABCABB"/>
<mask id="mask0_276_12331" style="mask-type:alpha" maskUnits="userSpaceOnUse" x="202" y="118" width="47" height="62">
<rect width="45.9499" height="61.7617" transform="matrix(-1 0 0 1 248.902 118.056)" fill="#D9D9D9"/>
</mask>
<g mask="url(#mask0_276_12331)">
<path d="M236.503 152.95C232.806 144.944 228.338 125.816 213.703 133.971C199.069 142.126 212.163 153.84 212.163 153.84L228.338 185.126C228.338 185.126 250.83 186.905 248.673 184.088C246.516 181.271 240.2 160.957 236.503 152.95Z" fill="#9EBFAF"/>
<path d="M235.405 146.941C231.708 138.934 228.099 127.911 225.72 127.911C223.341 127.911 230.53 140.986 233.706 149.32C235.065 152.888 237.104 158.495 237.104 158.495C237.104 158.495 239.351 158.957 239.653 159.344C239.954 159.732 239.102 154.948 235.405 146.941Z" fill="#FEEEF7"/>
</g>
<path d="M241.11 85.5424H222.043L223.405 87.5097C223.405 87.5097 229.513 97.6428 235.057 97.0432C240.002 96.5084 241.715 87.5097 241.715 87.5097H243.531C243.531 87.5097 246.619 96.7712 252.056 95.2884C257.493 93.8055 256.242 84.4832 256.242 84.4832L243.531 85.5424H241.11Z" fill="#313947"/>
<path d="M188 152.718H246.109L242.711 188.059H188V152.718Z" fill="#FEEEF7"/>
<path d="M241.576 81.221C242.817 82.418 244.24 78.4674 244.24 78.4674L243.049 68.2447L225.38 68.2446C225.38 68.2446 222.528 71.8658 218.007 80.8091C213.485 89.7524 212.408 97.1108 211.977 105.143C211.62 111.796 202.444 114.018 204.311 119.076C206.179 124.134 210.593 131.765 215.375 135.929C219.11 139.18 221.359 139.552 224.954 139.049C229.776 138.375 232.394 134.24 234.521 128.849C236.647 123.459 238.722 117.006 238.293 109.051C237.872 101.226 230.899 99.6819 229.288 92.5699C227.677 85.4579 230.445 80.2758 230.138 77.278C229.83 74.2802 231.903 76.5129 233.423 76.5926C236.889 76.7741 240.335 80.0241 241.576 81.221Z" fill="#0F1629"/>
<path d="M249.506 76.7165C236.629 75.3628 224.352 80.4687 219.823 83.1909C218.494 75.7601 221.004 69.5799 225.435 65.5334C227.281 63.4734 235.698 58.029 244.19 62.4434C250.983 65.9749 253.42 74.6565 253.789 78.5558C253.272 78.0899 251.692 77.0696 249.506 76.7165Z" fill="#1E3A4B"/>
<path d="M189.037 98.2104L191.057 87.3341L166.717 76.9439L164.834 91.0241L189.037 98.2104Z" fill="#A52E06"/>
<path d="M160.532 46.2324C164.52 38.6357 167.069 37.645 169.178 37.5313C184.716 35.3048 191.956 38.8114 193.831 41.3863C195.064 42.3482 197.78 44.8928 198.78 47.3764C200.029 50.4809 200.598 54.1484 200.891 55.9387C201.318 58.5492 201.318 58.0394 201.526 59.6965L204.207 76.7295C204.207 78.2587 204.406 80.9773 204.371 83.1524C204.287 88.2459 195.559 88.0537 191.205 87.3209C187.244 85.9547 177.677 82.7409 171.102 80.8154C164.528 78.8899 159.988 68.3207 157.895 63.5962C156.521 60.777 156.543 53.829 160.532 46.2324Z" fill="#A52E06"/>
<path d="M198.383 55.1014L195.632 70.1195C195.554 70.5456 195.691 70.9543 196.118 71.0294C198.043 71.3681 203.786 70.8613 204.841 70.6918C205.741 70.5471 206.424 69.9953 206.274 68.818C205.649 63.8834 199.814 56.393 198.383 55.1014Z" fill="#A52E06"/>
<path d="M176.512 35.9034C186.981 35.207 192.461 39.1651 193.892 41.2312C191.098 40.7629 186.975 42.4976 185.262 43.4236C186.135 44.5423 188.039 47.5434 188.671 50.5984C182.774 53.5787 182.822 59.0745 183.582 61.4498L188.858 75.2882C189.856 77.9052 191.887 79.9934 194.486 81.0356C197.57 82.2718 201.381 83.7844 203.997 84.8312C203.373 87.2206 199.586 87.6438 198.037 87.6077L194.165 86.0329C191.628 85.0007 189.613 82.9919 188.574 80.4567C185.292 72.4419 180.759 61.3596 180.622 60.9664C180.421 60.386 169.348 54.4945 168.632 64.0575C168.059 71.7079 166.623 75.0574 165.106 76.4895C162.816 74.3007 160.817 71.0636 158.846 68.3728C156.12 64.6523 155.519 60.4426 155.144 58.7559C154.769 57.0691 155.095 46.4938 160.836 41.2686C166.577 36.0434 167.919 35.9982 176.512 35.9034Z" fill="#320F03"/>
<path d="M195.645 94.9535L162.733 78.9771C162.733 78.9771 153.218 91.4158 148.766 100.331C132.029 133.844 147.556 196.244 147.556 196.244C147.556 196.244 195.006 206.789 198.041 191.292C201.077 175.794 194.846 107.575 194.846 107.575L199.319 108.853L195.645 94.9535Z" fill="#E4E5E8"/>
<path d="M160.976 91.5985L194.846 107.575L195.485 114.764L160.976 91.5985Z" fill="#C3C9DA"/>
<path d="M181.905 139.528H161.935H161.136L165.29 193.369H190.532C190.532 193.369 185.1 184.102 183.503 179.629C181.905 175.155 181.905 139.528 181.905 139.528Z" fill="#A52E06"/>
<path d="M26.9911 26.9737L22.8551 19.7807L37.7807 2.8772L61.1582 4.67544L72.3074 17.8026L91.3691 56.4649V91.3509L59.8994 93.5088L56.4827 70.4912C56.4827 70.4912 43.355 80.0219 37.9602 76.2456C32.5655 72.4693 34.1839 67.4342 33.2848 66.1754C32.3856 64.9167 33.8245 65.636 33.8245 65.636L27.8903 58.0833V49.2719C27.8903 49.2719 21.2585 51.7895 19.8198 48.193C18.3811 44.5965 26.9911 26.9737 26.9911 26.9737Z" fill="#F6A984"/>
<path d="M128.952 73.5482C129.03 77.366 128.074 74.8858 127.524 73.7522L127.164 73.8037C127.216 74.4759 127.425 75.8658 127.873 78.4035C130.031 90.6316 124.997 94.5877 124.997 94.5877C124.997 94.5877 131.33 100.824 134.707 105.377C149.552 125.389 148.014 174.969 148.014 174.969C148.014 174.969 36.3421 174.07 31.8464 174.969C27.3508 175.868 57.5616 115.807 57.5616 115.807L48.7501 99.8026L84.8953 79.8421L127.164 73.8037C127.101 72.991 127.269 73.2272 127.524 73.7522L128.952 73.5482Z" fill="#2A4A5F"/>
<path d="M32.6327 66.1089C36.4091 65.9291 38.9267 56.758 38.9267 56.758L28.8564 61.9729C28.8564 61.9729 28.8564 66.2887 32.6327 66.1089Z" fill="#9D2F2F"/>
<path d="M27.6389 57.8362C30.0039 54.8152 38.9266 56.758 38.9266 56.758L28.8563 62.1529C28.8563 62.1529 25.2738 60.8573 27.6389 57.8362Z" fill="#9D2F2F"/>
<path fill-rule="evenodd" clip-rule="evenodd" d="M23.7805 20.5074L28.2715 27.693L61.3382 10.0702L63.3159 16.364L32.0478 34.5263L36.2708 41.9162C36.5577 42.3819 36.7232 42.9304 36.7232 43.5175C36.7232 45.2059 35.3546 46.5746 33.6662 46.5746C32.5911 46.5746 31.6456 46.0196 31.1006 45.1805C31.129 45.2676 31.1489 45.3158 31.1489 45.3158L18.5002 23.5818C18.1971 23.1072 18.0215 22.5434 18.0215 21.9386C18.0215 20.2503 19.3902 18.8816 21.0785 18.8816C22.2497 18.8816 23.2671 19.5402 23.7805 20.5074Z" fill="white"/>
<path d="M28.9907 16.364C26.4732 18.3424 19.2802 23.1974 19.2802 23.1974L18 -0.719299H112.229C112.229 -0.719299 110.611 9.89035 117.264 14.2061C123.918 18.5219 137.229 20.9338 142.8 31.6491C147.413 40.5237 146.756 49.8114 144.778 57.1842C142.8 64.557 136.57 75.5209 126.615 82.5395C118.843 88.0194 113.28 89.1801 103.777 89.5526C91.0327 90.0522 82.0183 85.2368 73.5664 78.5833C65.1146 71.9298 61.4251 64.8097 58.1013 53.9474C54.8319 43.2625 57.0219 37.943 57.2018 27.8728C57.3816 17.8026 57.0224 17.2632 56.1442 13.1272C55.2661 8.99123 51.189 7.18025 47.3328 7.73246C38.5425 8.99123 31.5083 14.3857 28.9907 16.364Z" fill="#FEEEF7"/>
<path fill-rule="evenodd" clip-rule="evenodd" d="M18.5002 23.5817C18.1971 23.1072 18.0215 22.5434 18.0215 21.9386C18.0215 20.2502 19.3902 18.8816 21.0785 18.8816C22.2498 18.8816 23.2672 19.5403 23.7805 20.5074L28.2715 27.693L46.3376 20.5L32.0478 34.5263L36.2708 41.9162C36.5577 42.3819 36.7232 42.9304 36.7232 43.5175C36.7232 45.2059 35.3546 46.5746 33.6662 46.5746C32.5911 46.5746 31.6456 46.0196 31.1006 45.1805C31.129 45.2676 31.1489 45.3158 31.1489 45.3158L18.5002 23.5817Z" fill="white"/>
<path d="M258.572 82.7829C261.552 84.9485 268.05 88.884 268.001 86.3717C266.565 84.4872 262.229 80.9454 258.572 82.7829Z" fill="#1E3A4B"/>
<path d="M251 83.63C239.316 86.5015 233.299 81.7609 230.199 78.8143C240.013 75.1793 247.26 76.3616 249.286 76.483C250.907 76.5801 252.869 77.7908 253.647 78.384C256.15 80.0003 261.656 83.8911 263.662 86.5239C261.338 84.3139 258.457 81.9467 251 83.63Z" fill="#2B4A5E"/>
</g>
<defs>
<clipPath id="clip0_276_12331">
<rect width="273.333" height="164" fill="white"/>
</clipPath>
</defs>
</svg>
