<svg width="272" height="164" viewBox="0 0 272 164" fill="none" xmlns="http://www.w3.org/2000/svg">
<g clip-path="url(#clip0_647_11742)">
<rect width="272" height="163.2" fill="#003C60"/>
<rect y="94.1263" width="272" height="69.0737" fill="#22874D"/>
<rect opacity="0.2" x="211.516" y="94.1264" width="30.4211" height="69.0737" fill="#185E36"/>
<rect opacity="0.2" y="122.047" width="13.742" height="272" transform="rotate(-90 0 122.047)" fill="#185E36"/>
<rect opacity="0.2" y="149.312" width="13.742" height="272" transform="rotate(-90 0 149.312)" fill="#185E36"/>
<rect opacity="0.2" x="30.0632" y="94.1264" width="30.4211" height="69.0737" fill="#185E36"/>
<rect opacity="0.2" x="151.032" y="94.1264" width="30.0632" height="69.0737" fill="#185E36"/>
<rect opacity="0.2" x="90.9053" y="94.1264" width="30.0632" height="69.0737" fill="#185E36"/>
<path d="M97.3474 94.1263V67.6421H174.653V94.1263" stroke="white" stroke-width="1.78947"/>
<path d="M100.211 67.6421V94.1263" stroke="white" stroke-width="0.357895"/>
<path d="M103.789 67.6421V94.1263" stroke="white" stroke-width="0.357895"/>
<path d="M107.368 67.6421V94.1263" stroke="white" stroke-width="0.357895"/>
<path d="M110.947 67.6421V94.1263" stroke="white" stroke-width="0.357895"/>
<path d="M114.526 67.6421V94.1263" stroke="white" stroke-width="0.357895"/>
<path d="M118.105 67.6421V94.1263" stroke="white" stroke-width="0.357895"/>
<path d="M121.684 67.6421V94.1263" stroke="white" stroke-width="0.357895"/>
<path d="M125.263 67.6421V94.1263" stroke="white" stroke-width="0.357895"/>
<path d="M128.842 67.6421V94.1263" stroke="white" stroke-width="0.357895"/>
<path d="M132.421 67.6421V94.1263" stroke="white" stroke-width="0.357895"/>
<path d="M136 67.6421V94.1263" stroke="white" stroke-width="0.357895"/>
<path d="M139.579 67.6421V94.1263" stroke="white" stroke-width="0.357895"/>
<path d="M143.158 67.6421V94.1263" stroke="white" stroke-width="0.357895"/>
<path d="M146.737 67.6421V94.1263" stroke="white" stroke-width="0.357895"/>
<path d="M150.316 67.6421V94.1263" stroke="white" stroke-width="0.357895"/>
<path d="M153.895 67.6421V94.1263" stroke="white" stroke-width="0.357895"/>
<path d="M157.474 67.6421V94.1263" stroke="white" stroke-width="0.357895"/>
<path d="M161.053 67.6421V94.1263" stroke="white" stroke-width="0.357895"/>
<path d="M164.632 67.6421V94.1263" stroke="white" stroke-width="0.357895"/>
<path d="M168.211 67.6421V94.1263" stroke="white" stroke-width="0.357895"/>
<path d="M171.789 67.6421V94.1263" stroke="white" stroke-width="0.357895"/>
<path d="M98.2421 70.8632L174.295 70.8632" stroke="white" stroke-width="0.357895"/>
<path d="M98.2421 74.4421L174.295 74.4421" stroke="white" stroke-width="0.357895"/>
<path d="M98.2421 78.0211L174.295 78.0211" stroke="white" stroke-width="0.357895"/>
<path d="M98.2421 81.6L174.295 81.6" stroke="white" stroke-width="0.357895"/>
<path d="M98.2421 85.179L174.295 85.179" stroke="white" stroke-width="0.357895"/>
<path d="M98.2421 88.7579L174.295 88.7579" stroke="white" stroke-width="0.357895"/>
<path d="M98.2421 92.3369L174.295 92.3368" stroke="white" stroke-width="0.357895"/>
<rect x="36.8632" y="22.1895" width="2.86316" height="71.9368" fill="#999999"/>
<rect x="68" y="22.1895" width="1.43158" height="61.9158" transform="rotate(90 68 22.1895)" fill="#D9D9D9"/>
<rect x="37.579" y="7.87369" width="1.43158" height="15.3895" fill="#D9D9D9"/>
<rect x="60.8422" y="7.87369" width="1.43158" height="15.3895" fill="#D9D9D9"/>
<rect x="45.8105" y="7.87369" width="1.43158" height="15.3895" fill="#D9D9D9"/>
<rect x="69.0737" y="7.87369" width="1.43158" height="15.3895" fill="#D9D9D9"/>
<rect x="29.7053" y="7.87369" width="1.43158" height="15.3895" fill="#D9D9D9"/>
<rect x="52.9684" y="7.87369" width="1.43158" height="15.3895" fill="#D9D9D9"/>
<rect x="6.08423" y="7.87369" width="1.43158" height="15.3895" fill="#D9D9D9"/>
<rect x="21.8316" y="7.87369" width="1.43158" height="15.3895" fill="#D9D9D9"/>
<rect x="14.3158" y="7.87369" width="1.43158" height="15.3895" fill="#D9D9D9"/>
<rect x="69.7895" y="7.1579" width="1.43158" height="62.9895" transform="rotate(90 69.7895 7.1579)" fill="#D9D9D9"/>
<rect x="69.7895" y="14.3158" width="1.43158" height="62.9895" transform="rotate(90 69.7895 14.3158)" fill="#D9D9D9"/>
<circle cx="14.4948" cy="7.33684" r="3.4" fill="white"/>
<circle cx="6.62107" cy="7.33684" r="3.4" fill="white"/>
<circle cx="14.4948" cy="14.8526" r="3.4" fill="white"/>
<circle cx="6.62107" cy="14.8526" r="3.4" fill="white"/>
<circle cx="14.4948" cy="22.3684" r="3.4" fill="white"/>
<circle cx="6.62107" cy="22.3684" r="3.4" fill="white"/>
<circle cx="22.3684" cy="7.33684" r="3.4" fill="white"/>
<circle cx="22.3684" cy="14.8526" r="3.4" fill="white"/>
<circle cx="22.3684" cy="22.3684" r="3.4" fill="white"/>
<circle cx="30.2422" cy="7.33684" r="3.4" fill="white"/>
<circle cx="30.2422" cy="14.8526" r="3.4" fill="white"/>
<circle cx="30.2422" cy="22.3684" r="3.4" fill="white"/>
<circle cx="38.1158" cy="7.33684" r="3.4" fill="white"/>
<circle cx="38.1158" cy="14.8526" r="3.4" fill="white"/>
<circle cx="38.1158" cy="22.3684" r="3.4" fill="white"/>
<circle cx="45.9895" cy="7.33684" r="3.4" fill="white"/>
<circle cx="53.8632" cy="7.33684" r="3.4" fill="white"/>
<circle cx="61.7369" cy="7.33684" r="3.4" fill="white"/>
<circle cx="69.6106" cy="7.33684" r="3.4" fill="white"/>
<circle cx="45.9895" cy="14.8526" r="3.4" fill="white"/>
<circle cx="53.8632" cy="14.8526" r="3.4" fill="white"/>
<circle cx="61.7369" cy="14.8526" r="3.4" fill="white"/>
<circle cx="69.6106" cy="14.8526" r="3.4" fill="white"/>
<circle cx="45.9895" cy="22.3684" r="3.4" fill="white"/>
<circle cx="53.8632" cy="22.3684" r="3.4" fill="white"/>
<circle cx="61.7369" cy="22.3684" r="3.4" fill="white"/>
<circle cx="69.6106" cy="22.3684" r="3.4" fill="white"/>
<g style="mix-blend-mode:overlay">
<path d="M272 163.2H-0.35791L3.57893 22.888H7.15788V7.87369H69.7895L272 79.549V163.2Z" fill="url(#paint0_linear_647_11742)" fill-opacity="0.8"/>
</g>
<path d="M39.3183 130.892C40.9718 130.892 42.5179 131.107 43.9566 131.536C45.3954 131.966 46.6408 132.631 47.693 133.533C48.7667 134.435 49.6042 135.605 50.2055 137.044C50.8282 138.461 51.1396 140.158 51.1396 142.133C51.1396 144.195 50.8175 145.988 50.1732 147.513C49.5505 149.016 48.7023 150.261 47.6286 151.249C46.5764 152.215 45.3417 152.935 43.9244 153.407C42.5071 153.88 41.004 154.116 39.4149 154.116H28.4956V153.568L30.6537 153.117V131.858L28.4956 131.44V130.892H39.3183ZM39.0606 153.536C39.8766 153.536 40.5745 153.386 41.1543 153.085C41.7556 152.763 42.2387 152.205 42.6038 151.41C42.9688 150.594 43.2372 149.477 43.409 148.06C43.5808 146.621 43.6667 144.796 43.6667 142.584C43.6667 140.244 43.5701 138.354 43.3768 136.915C43.1836 135.455 42.8937 134.328 42.5071 133.533C42.1206 132.717 41.616 132.17 40.9932 131.891C40.392 131.611 39.6834 131.472 38.8674 131.472H37.4501V153.536H39.0606ZM58.0356 144.485L61.9009 143.744V141.393C61.9009 139.61 61.6862 138.376 61.2567 137.688C60.8487 137.001 60.1508 136.658 59.163 136.658C59.0556 136.658 58.9483 136.668 58.8409 136.69C58.7335 136.69 58.6262 136.701 58.5188 136.722L54.1704 142.617H53.6228L53.7516 137.141C54.5891 136.883 55.5447 136.636 56.6184 136.4C57.6921 136.164 58.9161 136.046 60.2904 136.046C62.6525 136.046 64.4992 136.432 65.8306 137.205C67.1619 137.978 67.8276 139.363 67.8276 141.36V152.827L69.5348 153.278V153.729C69.1912 153.944 68.6973 154.127 68.0531 154.277C67.4304 154.449 66.7539 154.535 66.0238 154.535C64.8643 154.535 63.9731 154.352 63.3504 153.987C62.7276 153.622 62.2874 153.117 62.0297 152.473H61.8687C61.3748 153.139 60.7521 153.665 60.0005 154.051C59.2489 154.416 58.3255 154.599 57.2304 154.599C55.8131 154.599 54.6643 154.18 53.7838 153.343C52.9034 152.484 52.4632 151.292 52.4632 149.767C52.4632 148.286 52.9249 147.126 53.8483 146.289C54.7716 145.43 56.1674 144.828 58.0356 144.485ZM60.4192 152.28C60.7843 152.28 61.0849 152.226 61.3211 152.119C61.5573 152.011 61.7506 151.861 61.9009 151.668V144.581L60.7091 144.678C59.7857 144.764 59.1308 145.129 58.7443 145.773C58.3577 146.396 58.1645 147.362 58.1645 148.672C58.1645 150.089 58.3685 151.045 58.7765 151.539C59.2059 152.033 59.7535 152.28 60.4192 152.28ZM75.0634 128.927C75.9009 128.927 76.631 129.217 77.2537 129.797C77.8765 130.377 78.1878 131.096 78.1878 131.955C78.1878 132.814 77.8765 133.533 77.2537 134.113C76.631 134.671 75.9009 134.951 75.0634 134.951C74.2045 134.951 73.4744 134.671 72.8731 134.113C72.2718 133.533 71.9712 132.814 71.9712 131.955C71.9712 131.096 72.2718 130.377 72.8731 129.797C73.4744 129.217 74.2045 128.927 75.0634 128.927ZM70.2963 137.173L77.3504 136.142L78.1556 136.207V153.053L79.9594 153.568V154.116H70.4251V153.568L72.2611 153.053V138.494L70.2963 137.721V137.173ZM80.8339 129.7L87.9846 128.669L88.6933 128.766V153.053L90.5293 153.568V154.116H80.9627V153.568L82.7987 153.053V130.989L80.8339 130.248V129.7ZM101.431 155.662C100.916 157.187 100.153 158.443 99.1441 159.431C98.1348 160.418 96.8356 161.084 95.2466 161.428L93.3462 157.949V157.466H100.175L92.2188 137.753L90.6727 137.012V136.464H100.594V137.012L98.5965 137.849L102.88 149.606L106.585 138.397L104.072 137.012V136.464H109.194V137.012L107.261 138.3L101.431 155.662Z" fill="white"/>
<path d="M6.66402 125.126V124.579L8.82212 124.128V102.933L6.69623 102.45V101.903H25.4428L25.6038 109.44H25.0562L20.8689 102.515H15.6185V113.434H18.1954L21.1265 109.15H21.6741V118.394H21.1265L18.1954 114.078H15.6185V124.16L18.131 124.579V125.126H6.66402ZM34.1773 125.609C32.846 125.609 31.622 125.395 30.5053 124.965C29.3887 124.514 28.4331 123.892 27.6386 123.097C26.8441 122.281 26.2213 121.293 25.7704 120.134C25.3409 118.953 25.1262 117.653 25.1262 116.236C25.1262 114.819 25.3409 113.541 25.7704 112.403C26.1999 111.265 26.8119 110.309 27.6064 109.536C28.4009 108.742 29.3458 108.13 30.4409 107.7C31.5576 107.271 32.7923 107.056 34.1451 107.056C35.498 107.056 36.7327 107.271 37.8493 107.7C38.966 108.13 39.9216 108.742 40.7161 109.536C41.5106 110.309 42.1226 111.276 42.5521 112.435C43.003 113.573 43.2285 114.851 43.2285 116.268C43.2285 117.686 43.0138 118.974 42.5843 120.134C42.1548 121.293 41.5428 122.281 40.7483 123.097C39.9538 123.892 38.9982 124.514 37.8816 124.965C36.7649 125.395 35.5302 125.609 34.1773 125.609ZM34.1773 107.636C33.7264 107.636 33.3291 107.765 32.9856 108.023C32.6634 108.259 32.3843 108.699 32.1481 109.343C31.9333 109.987 31.7616 110.879 31.6327 112.017C31.5253 113.133 31.4717 114.551 31.4717 116.268C31.4717 118.008 31.5253 119.447 31.6327 120.585C31.7616 121.701 31.9333 122.592 32.1481 123.258C32.3843 123.924 32.6742 124.385 33.0178 124.643C33.3613 124.901 33.7586 125.03 34.2096 125.03C34.6605 125.03 35.047 124.901 35.3691 124.643C35.7127 124.364 35.9919 123.902 36.2066 123.258C36.4213 122.592 36.5824 121.691 36.6898 120.552C36.8186 119.414 36.883 117.976 36.883 116.236C36.883 114.518 36.8293 113.101 36.722 111.984C36.6146 110.868 36.4428 109.987 36.2066 109.343C35.9919 108.699 35.7127 108.259 35.3691 108.023C35.0256 107.765 34.6283 107.636 34.1773 107.636ZM53.2394 125.609C51.9081 125.609 50.6841 125.395 49.5674 124.965C48.4508 124.514 47.4952 123.892 46.7007 123.097C45.9062 122.281 45.2834 121.293 44.8325 120.134C44.403 118.953 44.1883 117.653 44.1883 116.236C44.1883 114.819 44.403 113.541 44.8325 112.403C45.262 111.265 45.874 110.309 46.6685 109.536C47.463 108.742 48.4079 108.13 49.503 107.7C50.6196 107.271 51.8544 107.056 53.2072 107.056C54.5601 107.056 55.7948 107.271 56.9114 107.7C58.0281 108.13 58.9836 108.742 59.7782 109.536C60.5727 110.309 61.1847 111.276 61.6142 112.435C62.0651 113.573 62.2906 114.851 62.2906 116.268C62.2906 117.686 62.0759 118.974 61.6464 120.134C61.2169 121.293 60.6049 122.281 59.8104 123.097C59.0159 123.892 58.0603 124.514 56.9436 124.965C55.827 125.395 54.5923 125.609 53.2394 125.609ZM53.2394 107.636C52.7885 107.636 52.3912 107.765 52.0476 108.023C51.7255 108.259 51.4464 108.699 51.2102 109.343C50.9954 109.987 50.8236 110.879 50.6948 112.017C50.5874 113.133 50.5337 114.551 50.5337 116.268C50.5337 118.008 50.5874 119.447 50.6948 120.585C50.8236 121.701 50.9954 122.592 51.2102 123.258C51.4464 123.924 51.7363 124.385 52.0799 124.643C52.4234 124.901 52.8207 125.03 53.2716 125.03C53.7226 125.03 54.1091 124.901 54.4312 124.643C54.7748 124.364 55.054 123.902 55.2687 123.258C55.4834 122.592 55.6445 121.691 55.7519 120.552C55.8807 119.414 55.9451 117.976 55.9451 116.236C55.9451 114.518 55.8914 113.101 55.7841 111.984C55.6767 110.868 55.5049 109.987 55.2687 109.343C55.054 108.699 54.7748 108.259 54.4312 108.023C54.0876 107.765 53.6904 107.636 53.2394 107.636ZM65.1905 108.699H62.6781V108.119L65.1905 107.475V103.996L71.0529 103.062V107.475H74.9503V108.699H71.0529V120.424C71.0529 121.325 71.2246 121.98 71.5682 122.388C71.9118 122.775 72.5668 122.968 73.5331 122.968C73.8337 122.968 74.1236 122.957 74.4028 122.936C74.7034 122.893 74.9503 122.85 75.1436 122.807V123.355C74.6282 123.892 73.9411 124.385 73.0821 124.836C72.2446 125.266 71.2998 125.481 70.2476 125.481C68.5726 125.481 67.3057 125.062 66.4468 124.224C65.6093 123.387 65.1905 122.023 65.1905 120.134V108.699ZM88.4486 107.056C89.286 107.056 90.0698 107.217 90.7999 107.539C91.5515 107.84 92.1957 108.334 92.7326 109.021C93.2909 109.708 93.7311 110.61 94.0532 111.727C94.3753 112.843 94.5363 114.196 94.5363 115.785C94.5363 117.482 94.3001 118.953 93.8277 120.198C93.3768 121.444 92.7326 122.464 91.8951 123.258C91.0576 124.031 90.0376 124.611 88.8351 124.997C87.654 125.384 86.3549 125.577 84.9376 125.577C83.4344 125.577 82.0064 125.438 80.6536 125.159C79.3008 124.879 78.2271 124.504 77.4326 124.031V101.999L75.4677 101.258V100.711L82.4896 99.68L83.1982 99.7766V109.279H83.3915C83.8424 108.763 84.4974 108.269 85.3563 107.797C86.2368 107.303 87.2675 107.056 88.4486 107.056ZM85.1631 124.965C86.1509 124.965 86.9239 124.343 87.4822 123.097C88.062 121.83 88.3519 119.586 88.3519 116.365C88.3519 113.745 88.0728 111.952 87.5144 110.986C86.9561 109.998 86.1831 109.504 85.1953 109.504C84.8517 109.504 84.5189 109.547 84.1968 109.633C83.8747 109.697 83.5848 109.783 83.3271 109.891V124.289C83.5418 124.504 83.7995 124.675 84.1001 124.804C84.4222 124.912 84.7766 124.965 85.1631 124.965ZM101.254 115.495L105.12 114.755V112.403C105.12 110.621 104.905 109.386 104.475 108.699C104.067 108.012 103.369 107.668 102.382 107.668C102.274 107.668 102.167 107.679 102.06 107.7C101.952 107.7 101.845 107.711 101.737 107.733L97.389 113.627H96.8414L96.9703 108.151C97.8077 107.894 98.7633 107.647 99.837 107.411C100.911 107.174 102.135 107.056 103.509 107.056C105.871 107.056 107.718 107.443 109.049 108.216C110.381 108.989 111.046 110.374 111.046 112.371V123.838L112.753 124.289V124.74C112.41 124.955 111.916 125.137 111.272 125.287C110.649 125.459 109.973 125.545 109.242 125.545C108.083 125.545 107.192 125.363 106.569 124.997C105.946 124.632 105.506 124.128 105.248 123.484H105.087C104.593 124.149 103.971 124.675 103.219 125.062C102.468 125.427 101.544 125.609 100.449 125.609C99.0317 125.609 97.8829 125.191 97.0025 124.353C96.122 123.494 95.6818 122.303 95.6818 120.778C95.6818 119.296 96.1435 118.137 97.0669 117.299C97.9903 116.44 99.386 115.839 101.254 115.495ZM103.638 123.29C104.003 123.29 104.304 123.237 104.54 123.129C104.776 123.022 104.969 122.872 105.12 122.678V115.592L103.928 115.689C103.004 115.775 102.349 116.14 101.963 116.784C101.576 117.407 101.383 118.373 101.383 119.683C101.383 121.1 101.587 122.056 101.995 122.549C102.425 123.043 102.972 123.29 103.638 123.29ZM113.515 100.711L120.666 99.68L121.374 99.7766V124.063L123.21 124.579V125.126H113.644V124.579L115.48 124.063V101.999L113.515 101.258V100.711ZM123.958 100.711L131.109 99.68L131.818 99.7766V124.063L133.654 124.579V125.126H124.087V124.579L125.923 124.063V101.999L123.958 101.258V100.711Z" fill="white"/>
<path d="M216.645 15.5174L217.764 14.9351V6.14559H216.918L214.852 8.88596H214.618L214.75 5.83134H223.709L223.838 8.88596H223.593L221.569 6.14559H220.702V14.9166L221.828 15.5105V15.8085H216.645V15.5174Z" fill="white"/>
<path d="M224.738 15.1291V5.38765L223.869 5.04106V4.85853L227.01 4.29474H227.34V8.90439L227.428 8.83045C228.124 8.22276 229.122 7.83227 230.121 7.83227C231.496 7.83227 232.104 8.60863 232.104 10.0551V15.1291L232.839 15.5289V15.8246H228.732V15.5312L229.469 15.1291V10.0366C229.469 9.24174 229.122 8.92287 228.47 8.92287C228.036 8.92287 227.662 9.0592 227.384 9.28102V15.1407L228.108 15.5404V15.8223H223.998V15.5427L224.738 15.1291Z" fill="white"/>
<path d="M235.231 12.137C235.317 13.7475 236.038 14.9929 237.748 14.9929C238.576 14.9929 239.163 14.6094 239.715 14.3182V14.6348C239.288 15.2194 238.204 16.0396 236.694 16.0396C234.043 16.0396 232.689 14.5678 232.689 12.0169C232.689 9.52372 234.17 7.97099 236.565 7.97099C238.816 7.97099 239.986 9.09626 239.986 12.0584V12.1347H235.231V12.137ZM235.187 11.7673L237.519 11.6241C237.519 9.63001 237.177 8.30603 236.493 8.30603C235.767 8.30603 235.187 9.84258 235.187 11.7673Z" fill="white"/>
<path d="M201.853 19.7087C201.853 15.4688 204.661 13.9599 207.788 13.9599C209.115 13.9599 210.368 14.1725 211.068 14.4637L211.128 17.4235H210.83L208.995 14.5607C208.68 14.4267 208.382 14.3735 207.832 14.3735C206.17 14.3735 205.32 16.2937 205.345 19.443C205.377 23.2093 206.032 24.9191 207.557 24.9191C207.955 24.9191 208.26 24.8591 208.472 24.7666V20.73L207.465 20.1524V19.815H212.332V20.1755L211.341 20.73V24.7112C210.518 25.0323 209.129 25.3373 207.663 25.3373C204.109 25.3373 201.853 23.6899 201.853 19.7087Z" fill="white"/>
<path d="M212.161 17.731V17.4861L215.434 16.9084L215.792 16.9384V23.385C215.792 24.1614 216.167 24.4017 216.793 24.4017C217.198 24.4017 217.563 24.2492 217.854 23.9003V18.1192L216.957 17.731V17.4768L220.23 16.8992L220.559 16.9292V24.3185L221.441 24.6882V24.9239L218.212 25.3213L217.884 25.2913V24.3208H217.794C217.195 24.8731 216.359 25.3513 215.342 25.3513C213.772 25.3513 213.054 24.4248 213.054 23.02V18.1192L212.161 17.731Z" fill="white"/>
<path d="M232.851 16.8946L233.119 16.9246V19.3114H233.193C233.542 17.5623 234.314 16.9084 235.254 16.9084C235.405 16.9084 235.569 16.9223 235.659 16.9685V19.4108C235.509 19.3669 235.241 19.3507 234.986 19.3507C234.24 19.3507 233.69 19.4847 233.207 19.7066V24.4248L233.951 24.8384V25.1434H229.707V24.8407L230.472 24.4271V17.9875L229.575 17.7194V17.4999L232.851 16.8946Z" fill="white"/>
<path d="M241.07 17.0956V14.5771L240.173 14.2628V14.0618L243.476 13.4541L243.79 13.498V24.314L244.703 24.6444V24.924L241.444 25.363L241.19 25.3329V24.4387H241.116C240.638 24.917 239.979 25.3491 238.948 25.3491C237.168 25.3491 235.869 23.9905 235.869 21.2108C235.869 18.281 237.378 16.8415 239.667 16.8415C240.321 16.8415 240.815 16.9616 241.07 17.0956ZM241.063 24.0205V17.5554C240.852 17.4214 240.702 17.2551 240.159 17.2736C239.276 17.3036 238.731 18.6391 238.731 21.0144C238.731 23.1517 239.124 24.3463 240.3 24.307C240.631 24.2955 240.899 24.1776 241.063 24.0205Z" fill="white"/>
<path d="M248.332 16.8875L248.616 16.9176V24.4224L249.363 24.836V25.141H245.119V24.8383L245.882 24.4247V18.1029L244.969 17.7448V17.4952L248.332 16.8875ZM248.633 14.8611C248.633 15.6537 247.96 16.2498 247.183 16.2498C246.377 16.2498 245.748 15.6514 245.748 14.8611C245.748 14.0686 246.377 13.4563 247.183 13.4563C247.96 13.4563 248.633 14.0686 248.633 14.8611Z" fill="white"/>
<path d="M258.62 24.4247V18.0336L257.723 17.7193V17.4097L260.982 16.802L261.31 16.8321V17.7887H261.401C262.103 17.1602 263.15 16.7581 264.181 16.7581C265.6 16.7581 266.229 17.4305 266.229 18.9255V24.4108L266.989 24.836V25.141H262.746V24.8383L263.509 24.4247V19.0757C263.509 18.2531 263.15 17.925 262.478 17.925C262.043 17.925 261.687 18.0359 261.357 18.2808V24.4224L262.103 24.836V25.141H257.857V24.8383L258.62 24.4247Z" fill="white"/>
<path d="M253.912 20.4088V19.3367C253.912 17.7216 253.56 17.1925 252.562 17.1925C252.444 17.1925 252.342 17.2063 252.224 17.2225L250.447 19.6302H250.197V17.4143C250.96 17.1786 251.915 16.9013 253.179 16.9013C255.352 16.9013 256.616 17.5044 256.616 19.3228V24.5494L257.395 24.7551V24.9607C257.088 25.1525 256.47 25.3281 255.793 25.3281C254.721 25.3281 254.208 24.9769 253.972 24.3877H253.898C253.443 25.0046 252.798 25.3558 251.783 25.3558C250.491 25.3558 249.61 24.5494 249.61 23.1538C249.61 21.8021 250.447 21.0697 252.15 20.7462L253.912 20.4088ZM253.912 24.0203V20.7901L253.369 20.834C252.516 20.9079 252.208 21.4509 252.208 22.6547C252.208 23.9602 252.634 24.2999 253.237 24.2999C253.574 24.2976 253.766 24.1959 253.912 24.0203Z" fill="white"/>
<path d="M225.78 20.4088V19.3367C225.78 17.7216 225.429 17.1925 224.428 17.1925C224.31 17.1925 224.208 17.2063 224.09 17.2225L222.313 19.6302H222.063V17.4143C222.826 17.1786 223.781 16.9013 225.045 16.9013C227.218 16.9013 228.482 17.5044 228.482 19.3228V24.5494L229.261 24.7551V24.9607C228.954 25.1525 228.336 25.3281 227.659 25.3281C226.587 25.3281 226.074 24.9769 225.838 24.3877H225.764C225.309 25.0046 224.661 25.3558 223.649 25.3558C222.357 25.3558 221.476 24.5494 221.476 23.1538C221.476 21.8021 222.313 21.0697 224.016 20.7462L225.78 20.4088ZM225.78 24.0203V20.7901L225.237 20.834C224.384 20.9079 224.077 21.4509 224.077 22.6547C224.077 23.9602 224.502 24.2999 225.105 24.2999C225.44 24.2976 225.632 24.1959 225.78 24.0203Z" fill="white"/>
</g>
<defs>
<linearGradient id="paint0_linear_647_11742" x1="135.821" y1="12.3422" x2="135.821" y2="162.843" gradientUnits="userSpaceOnUse">
<stop stop-color="#FAFFE7"/>
<stop offset="0.760417" stop-color="white" stop-opacity="0"/>
<stop offset="1" stop-color="white" stop-opacity="0"/>
<stop offset="1" stop-color="white" stop-opacity="0"/>
</linearGradient>
<clipPath id="clip0_647_11742">
<rect width="272" height="163.2" fill="white"/>
</clipPath>
</defs>
</svg>
