<svg width="164" height="164" viewBox="0 0 164 164" fill="none" xmlns="http://www.w3.org/2000/svg">
<g clip-path="url(#clip0_596_12998)">
<rect width="164" height="164" fill="#003C60"/>
<rect x="-54.6667" y="94.588" width="273.333" height="69.4123" fill="#22874D"/>
<rect opacity="0.2" x="157.886" y="94.5877" width="30.5702" height="69.4123" fill="#185E36"/>
<rect opacity="0.2" x="-54.6667" y="122.645" width="13.8094" height="273.333" transform="rotate(-90 -54.6667 122.645)" fill="#185E36"/>
<rect opacity="0.2" x="-54.6667" y="150.045" width="13.8094" height="273.333" transform="rotate(-90 -54.6667 150.045)" fill="#185E36"/>
<rect opacity="0.2" x="-24.4569" y="94.5877" width="30.5702" height="69.4123" fill="#185E36"/>
<rect opacity="0.2" x="97.1056" y="94.5877" width="30.2105" height="69.4123" fill="#185E36"/>
<rect opacity="0.2" x="36.6846" y="94.5877" width="30.2105" height="69.4123" fill="#185E36"/>
<path d="M43.4118 94.5878V67.9738H121.096V94.5878" stroke="white" stroke-width="1.79825"/>
<path d="M46.289 67.9739V94.5879" stroke="white" stroke-width="0.359649"/>
<path d="M49.8849 67.9739V94.5879" stroke="white" stroke-width="0.359649"/>
<path d="M53.4824 67.9739V94.5879" stroke="white" stroke-width="0.359649"/>
<path d="M57.0783 67.9739V94.5879" stroke="white" stroke-width="0.359649"/>
<path d="M60.6757 67.9739V94.5879" stroke="white" stroke-width="0.359649"/>
<path d="M64.2717 67.9739V94.5879" stroke="white" stroke-width="0.359649"/>
<path d="M67.8691 67.9739V94.5879" stroke="white" stroke-width="0.359649"/>
<path d="M71.4651 67.9739V94.5879" stroke="white" stroke-width="0.359649"/>
<path d="M75.061 67.9739V94.5879" stroke="white" stroke-width="0.359649"/>
<path d="M78.6569 67.9739V94.5879" stroke="white" stroke-width="0.359649"/>
<path d="M82.2544 67.9739V94.5879" stroke="white" stroke-width="0.359649"/>
<path d="M85.8503 67.9739V94.5879" stroke="white" stroke-width="0.359649"/>
<path d="M89.4478 67.9739V94.5879" stroke="white" stroke-width="0.359649"/>
<path d="M93.0437 67.9739V94.5879" stroke="white" stroke-width="0.359649"/>
<path d="M96.6396 67.9739V94.5879" stroke="white" stroke-width="0.359649"/>
<path d="M100.236 67.9739V94.5879" stroke="white" stroke-width="0.359649"/>
<path d="M103.833 67.9739V94.5879" stroke="white" stroke-width="0.359649"/>
<path d="M107.429 67.9739V94.5879" stroke="white" stroke-width="0.359649"/>
<path d="M111.026 67.9739V94.5879" stroke="white" stroke-width="0.359649"/>
<path d="M114.622 67.9739V94.5879" stroke="white" stroke-width="0.359649"/>
<path d="M118.218 67.9739V94.5879" stroke="white" stroke-width="0.359649"/>
<path d="M44.3113 71.2104L120.737 71.2104" stroke="white" stroke-width="0.359649"/>
<path d="M44.3113 74.8071L120.737 74.8071" stroke="white" stroke-width="0.359649"/>
<path d="M44.3113 78.4038L120.737 78.4038" stroke="white" stroke-width="0.359649"/>
<path d="M44.3113 82.0005L120.737 82.0005" stroke="white" stroke-width="0.359649"/>
<path d="M44.3113 85.5964L120.737 85.5964" stroke="white" stroke-width="0.359649"/>
<path d="M44.3113 89.1931L120.737 89.1931" stroke="white" stroke-width="0.359649"/>
<path d="M44.3113 92.7898L120.737 92.7898" stroke="white" stroke-width="0.359649"/>
<rect x="16.5028" y="22.2983" width="2.87719" height="72.2895" fill="#999999"/>
<rect x="47.7924" y="22.2983" width="1.4386" height="62.2193" transform="rotate(90 47.7924 22.2983)" fill="#D9D9D9"/>
<rect x="17.2217" y="7.91226" width="1.4386" height="15.4649" fill="#D9D9D9"/>
<rect x="40.5991" y="7.91226" width="1.4386" height="15.4649" fill="#D9D9D9"/>
<rect x="25.4934" y="7.91226" width="1.4386" height="15.4649" fill="#D9D9D9"/>
<rect x="48.8708" y="7.91226" width="1.4386" height="15.4649" fill="#D9D9D9"/>
<rect x="9.30948" y="7.91226" width="1.4386" height="15.4649" fill="#D9D9D9"/>
<rect x="32.6868" y="7.91226" width="1.4386" height="15.4649" fill="#D9D9D9"/>
<rect x="1.39719" y="7.91226" width="1.4386" height="15.4649" fill="#D9D9D9"/>
<rect x="49.5912" y="7.19262" width="1.4386" height="63.2982" transform="rotate(90 49.5912 7.19262)" fill="#D9D9D9"/>
<rect x="49.5912" y="14.386" width="1.4386" height="63.2982" transform="rotate(90 49.5912 14.386)" fill="#D9D9D9"/>
<circle cx="1.93678" cy="7.37279" r="3.41667" fill="white"/>
<circle cx="1.93678" cy="14.9256" r="3.41667" fill="white"/>
<circle cx="1.93678" cy="22.4777" r="3.41667" fill="white"/>
<circle cx="9.84907" cy="7.37279" r="3.41667" fill="white"/>
<circle cx="9.84907" cy="14.9256" r="3.41667" fill="white"/>
<circle cx="9.84907" cy="22.4777" r="3.41667" fill="white"/>
<circle cx="17.7613" cy="7.37279" r="3.41667" fill="white"/>
<circle cx="17.7613" cy="14.9256" r="3.41667" fill="white"/>
<circle cx="17.7613" cy="22.4777" r="3.41667" fill="white"/>
<circle cx="25.6736" cy="7.37279" r="3.41667" fill="white"/>
<circle cx="33.5859" cy="7.37279" r="3.41667" fill="white"/>
<circle cx="41.4981" cy="7.37279" r="3.41667" fill="white"/>
<circle cx="49.4104" cy="7.37279" r="3.41667" fill="white"/>
<circle cx="25.6736" cy="14.9256" r="3.41667" fill="white"/>
<circle cx="33.5859" cy="14.9256" r="3.41667" fill="white"/>
<circle cx="41.4981" cy="14.9256" r="3.41667" fill="white"/>
<circle cx="49.4104" cy="14.9256" r="3.41667" fill="white"/>
<circle cx="25.6736" cy="22.4777" r="3.41667" fill="white"/>
<circle cx="33.5859" cy="22.4777" r="3.41667" fill="white"/>
<circle cx="41.4981" cy="22.4777" r="3.41667" fill="white"/>
<circle cx="49.4104" cy="22.4777" r="3.41667" fill="white"/>
<g style="mix-blend-mode:overlay">
<path d="M252.791 164H-20.9019L-16.9458 22.9999H-13.3493V7.91203H49.5893L252.791 79.9387V164Z" fill="url(#paint0_linear_596_12998)" fill-opacity="0.8"/>
</g>
<rect width="2.87719" height="72.2895" transform="matrix(-1 0 0 1 147.857 22.2983)" fill="#999999"/>
<rect width="1.4386" height="62.2193" transform="matrix(4.37114e-08 1 1 -4.37114e-08 116.567 22.2983)" fill="#D9D9D9"/>
<rect width="1.4386" height="15.4649" transform="matrix(-1 0 0 1 147.138 7.91226)" fill="#D9D9D9"/>
<rect width="1.4386" height="15.4649" transform="matrix(-1 0 0 1 123.761 7.91226)" fill="#D9D9D9"/>
<rect width="1.4386" height="15.4649" transform="matrix(-1 0 0 1 138.866 7.91226)" fill="#D9D9D9"/>
<rect width="1.4386" height="15.4649" transform="matrix(-1 0 0 1 115.489 7.91226)" fill="#D9D9D9"/>
<rect width="1.4386" height="15.4649" transform="matrix(-1 0 0 1 155.05 7.91226)" fill="#D9D9D9"/>
<rect width="1.4386" height="15.4649" transform="matrix(-1 0 0 1 131.673 7.91226)" fill="#D9D9D9"/>
<rect width="1.4386" height="15.4649" transform="matrix(-1 0 0 1 162.962 7.91226)" fill="#D9D9D9"/>
<rect width="1.4386" height="63.2982" transform="matrix(4.37114e-08 1 1 -4.37114e-08 114.768 7.19262)" fill="#D9D9D9"/>
<rect width="1.4386" height="63.2982" transform="matrix(4.37114e-08 1 1 -4.37114e-08 114.768 14.386)" fill="#D9D9D9"/>
<circle r="3.41667" transform="matrix(-1 0 0 1 162.423 7.37279)" fill="white"/>
<circle r="3.41667" transform="matrix(-1 0 0 1 162.423 14.9256)" fill="white"/>
<circle r="3.41667" transform="matrix(-1 0 0 1 162.423 22.4777)" fill="white"/>
<circle r="3.41667" transform="matrix(-1 0 0 1 154.511 7.37279)" fill="white"/>
<circle r="3.41667" transform="matrix(-1 0 0 1 154.511 14.9256)" fill="white"/>
<circle r="3.41667" transform="matrix(-1 0 0 1 154.511 22.4777)" fill="white"/>
<circle r="3.41667" transform="matrix(-1 0 0 1 146.598 7.37279)" fill="white"/>
<circle r="3.41667" transform="matrix(-1 0 0 1 146.598 14.9256)" fill="white"/>
<circle r="3.41667" transform="matrix(-1 0 0 1 146.598 22.4777)" fill="white"/>
<circle r="3.41667" transform="matrix(-1 0 0 1 138.686 7.37279)" fill="white"/>
<circle r="3.41667" transform="matrix(-1 0 0 1 130.774 7.37279)" fill="white"/>
<circle r="3.41667" transform="matrix(-1 0 0 1 122.862 7.37279)" fill="white"/>
<circle r="3.41667" transform="matrix(-1 0 0 1 114.949 7.37279)" fill="white"/>
<circle r="3.41667" transform="matrix(-1 0 0 1 138.686 14.9256)" fill="white"/>
<circle r="3.41667" transform="matrix(-1 0 0 1 130.774 14.9256)" fill="white"/>
<circle r="3.41667" transform="matrix(-1 0 0 1 122.862 14.9256)" fill="white"/>
<circle r="3.41667" transform="matrix(-1 0 0 1 114.949 14.9256)" fill="white"/>
<circle r="3.41667" transform="matrix(-1 0 0 1 138.686 22.4777)" fill="white"/>
<circle r="3.41667" transform="matrix(-1 0 0 1 130.774 22.4777)" fill="white"/>
<circle r="3.41667" transform="matrix(-1 0 0 1 122.862 22.4777)" fill="white"/>
<circle r="3.41667" transform="matrix(-1 0 0 1 114.949 22.4777)" fill="white"/>
<g style="mix-blend-mode:overlay">
<path d="M-88.4314 164H185.262L181.305 22.9999H177.709V7.91203H114.77L-88.4314 79.9387V164Z" fill="url(#paint1_linear_596_12998)" fill-opacity="0.8"/>
</g>
</g>
<defs>
<linearGradient id="paint0_linear_596_12998" x1="115.945" y1="12.4025" x2="115.945" y2="163.641" gradientUnits="userSpaceOnUse">
<stop stop-color="#FAFFE7"/>
<stop offset="0.760417" stop-color="white" stop-opacity="0"/>
<stop offset="1" stop-color="white" stop-opacity="0"/>
<stop offset="1" stop-color="white" stop-opacity="0"/>
</linearGradient>
<linearGradient id="paint1_linear_596_12998" x1="48.4151" y1="12.4025" x2="48.4151" y2="163.641" gradientUnits="userSpaceOnUse">
<stop stop-color="#FAFFE7"/>
<stop offset="0.760417" stop-color="white" stop-opacity="0"/>
<stop offset="1" stop-color="white" stop-opacity="0"/>
<stop offset="1" stop-color="white" stop-opacity="0"/>
</linearGradient>
<clipPath id="clip0_596_12998">
<rect width="164" height="164" fill="white"/>
</clipPath>
</defs>
</svg>
