<svg width="164" height="164" viewBox="0 0 164 164" fill="none" xmlns="http://www.w3.org/2000/svg">
<g clip-path="url(#clip0_146_12150)">
<rect width="164" height="164" fill="#052962"/>
<g style="mix-blend-mode:overlay">
<ellipse cx="82.1782" cy="82" rx="110.178" ry="78" fill="url(#paint0_radial_146_12150)"/>
</g>
<rect x="7.42099" y="47.5564" width="148.316" height="82.585" fill="black"/>
<rect x="10.1915" y="50.2728" width="142.981" height="75.4037" fill="#FBF6EF"/>
<rect x="126.394" y="127.577" width="20.8069" height="4.61655" rx="2.30828" fill="black"/>
<path d="M73.0046 93.1209C73.2106 95.9011 71.8891 96.5962 71.2026 96.5962C71.4601 97.7546 73.0046 97.6258 76.3512 97.8833C79.0284 98.0892 80.9848 97.111 81.6284 96.5962C80.5129 95.9526 78.4621 94.3051 79.1828 92.8635C80.2125 92.6575 81.5855 89.8602 82.1432 88.4872C82.5294 86.342 83.0185 81.511 81.8858 79.3486C80.47 76.6457 78.4106 76.3882 74.163 76.6457C68.7056 76.6457 68.2852 81.88 68.7571 84.4971C69.1432 86.5565 70.5333 91.1645 73.0046 93.1209Z" fill="#69A4FF"/>
<path d="M69.9155 88.8734C69.1947 87.6378 68.4997 84.4972 68.2422 83.0813C68.2422 79.7863 69.3578 78.276 69.9155 77.9328C69.701 77.5038 69.5551 76.2081 70.6878 74.4576C71.8205 72.7071 73.6482 72.6985 74.4205 72.913C75.2786 72.9559 77.1749 73.5823 77.8957 75.7447C79.569 75.616 83.1729 78.5764 82.9155 81.7942C82.6581 85.012 82.272 86.814 80.7274 89.3882C79.1828 91.9625 77.2521 92.6576 74.4205 92.4001C71.5888 92.1427 70.8165 90.4179 69.9155 88.8734Z" fill="#041F4A"/>
<path d="M65.7967 97.6259C62.3987 98.2437 62.064 102.774 62.3214 104.962H89.3511C89.3082 103.418 89.0422 100.02 88.3214 98.7843C87.4204 97.2397 84.2026 96.21 81.6284 96.21C80.0838 97.3684 79.8264 96.9823 76.0937 97.3684C73.1076 97.6773 71.4171 96.8965 70.9452 96.4674C70.0871 96.4674 67.8561 96.6991 65.7967 97.6259Z" fill="#0077B6"/>
<path d="M34.4258 86.8511V88.9105C40.9129 90.2491 43.3928 89.2966 43.8218 88.6531C43.7789 88.0524 43.7446 86.7481 43.9505 86.3362C44.2079 85.8214 45.3664 84.2768 45.3664 81.7026C46.5248 81.8313 46.2673 80.8016 46.5248 79.257C46.7822 77.7125 46.3961 76.8115 45.7525 76.8115C46.1386 73.2075 45.4951 70.2471 45.3664 69.4748C45.2376 68.7026 45.3664 68.5739 43.9505 67.0293C42.5347 65.4847 41.1188 65.0986 37.1287 65.356C31.7743 65.1501 29.6634 68.1877 29.2773 69.7323C29.1485 71.0194 29.2 74.5976 30.4357 78.6135C29.7149 79.0253 29.7921 79.9864 29.9208 80.4154C30.1353 81.4881 30.8733 83.5818 32.1089 83.3758C32.4179 85.1263 33.7822 86.422 34.4258 86.8511Z" fill="#69A4FF"/>
<path d="M100.316 99.4409V100.793C101.794 101.881 105.522 101.356 105.808 100.933C105.779 100.539 105.756 99.6822 105.893 99.4117C106.065 99.0736 107.146 97.7505 107.146 96.06C107.918 96.1445 107.747 95.4683 107.918 94.454C108.09 93.4398 107.833 92.8481 107.404 92.8481C107.661 90.4814 107.232 88.5374 107.146 88.0303C107.06 87.5231 107.146 87.4386 106.202 86.4243C105.258 85.41 104.315 85.1565 101.654 85.3255C98.0848 85.1903 96.6776 87.185 96.4202 88.1993C96.3343 89.0445 96.3687 91.3943 97.1924 94.0314C96.7119 94.3019 96.7634 94.933 96.8492 95.2148C96.9922 95.9191 97.4842 97.294 98.3079 97.1588C98.5139 98.3083 99.8868 99.1592 100.316 99.4409Z" fill="#69A4FF"/>
<path d="M45.3663 82.3461C44.8515 86.053 40.7756 87.0656 38.802 87.1085C35.5842 87.4946 31.8515 84.5342 31.8515 82.7323C31.8515 81.2907 30.6502 79.2141 30.0495 78.356C29.6634 77.6695 28.8396 75.4214 28.6337 71.9204C28.4277 68.4194 30.4356 66.5144 31.4653 65.9996C33.9109 65.0986 39.5743 63.76 42.6634 65.6134C46.5248 67.9303 46.2673 70.1184 45.8812 74.6233C45.4951 79.1283 46.0099 77.7124 45.3663 82.3461Z" fill="#041F4A"/>
<path d="M66.8614 107.316H17.8218C18.2079 99.7224 18.8515 97.663 20.0099 96.1184C21.1683 94.5739 27.9901 92.257 31.9802 91.4847C32.701 92.4115 36.3993 92.9006 38.1584 93.0293C39.9604 93.0722 44.1049 92.8234 46.2673 91.4847C54.5049 93.4154 56.1782 94.3164 58.8812 96.762C61.0436 98.7184 65.1023 104.613 66.8614 107.316Z" fill="#506991"/>
<path d="M116.931 110.453H92.4753C92.6678 106.749 92.9888 105.744 93.5664 104.991C94.1441 104.238 97.5461 103.107 99.5359 102.731C99.8953 103.183 101.74 103.421 102.617 103.484C103.516 103.505 105.582 103.384 106.661 102.731C110.769 103.673 111.603 104.112 112.951 105.305C114.029 106.259 116.053 109.135 116.931 110.453Z" fill="#052962"/>
<path d="M44.3366 88.5243C41.2475 89.9659 35.9274 89.125 33.6535 88.5243C33.4389 88.9105 32.804 90.0431 31.9802 91.4847C32.495 92.4851 33.9109 93.0808 38.9307 93.3382C42.9465 93.5441 45.495 92.0854 46.2673 91.4847C46.1815 91.356 45.6752 90.5837 44.3366 88.5243Z" fill="#0077B6"/>
<path d="M106.17 100.723C104.278 101.721 101.256 101.139 99.8634 100.723C99.7319 100.99 99.7244 101.774 99.2198 102.772C99.5352 103.465 100.403 103.877 103.478 104.056C105.938 104.198 107.37 103.327 107.844 102.911C107.457 103.2 106.99 102.149 106.17 100.723Z" fill="#052962"/>
<path d="M143.568 101.713C143.877 102.846 143.396 115.483 143.568 117.671C135.888 117.671 122.562 121.79 114.736 121.79C114.633 118.804 114.522 102.529 114.736 100.812C114.736 100.298 115.148 98.8303 119.37 97.0798C124.647 94.8917 138.806 97.3372 140.865 97.7233C142.924 98.1095 143.182 100.298 143.568 101.713Z" fill="#506991"/>
<path d="M128.38 69.0719C134.455 69.1749 136.918 73.1478 137.39 75.1214C140.222 83.6165 136.36 87.9927 138.934 91.5967C140.994 94.4798 141.938 97.3458 142.152 100.993C142.367 102.666 140.53 103.824 131.469 105.369C122.408 106.913 120.915 103.267 121.301 101.25C121.687 97.3029 121.816 90.567 119.241 84.9036C116.667 79.2402 118.169 74.5637 119.241 72.9333C119.615 71.9689 121.693 69.7126 124.396 70.4848C124.782 68.9403 126.71 69.0436 128.38 69.0719Z" fill="#041F4A"/>
<path d="M100.558 98.8436C98.0871 97.9168 96.6026 92.8284 96.5168 91.4554C95.101 86.1782 107.972 85.5346 107.586 91.0693C107.277 95.497 106.565 98.2 105.99 98.3544C105.175 98.8693 103.03 99.7703 100.558 98.8436Z" fill="#041F4A"/>
<path d="M-6.24872 108.505C-6.24872 108.505 -5.96171 101.377 1.56284 100.723C10.2654 100.723 21.2365 102.126 21.2365 102.126C21.2365 102.126 39.55 101.096 45.9864 101.845C52.4229 102.594 54.2223 105.212 54.6365 106.427C56.0142 109.604 54.5367 113.792 54.5367 113.792L-6.24872 108.505Z" fill="url(#paint1_linear_146_12150)"/>
<path d="M-4.01256 116.503C-4.01256 116.503 -8.09055 109.138 -5.23546 106.824C-2.38037 104.509 3.3323 102.406 15.1619 105.562C23.1183 106.615 32.0928 104.932 32.0928 104.932C32.0928 104.932 43.9225 103.037 51.6741 106.615C55.9717 108.507 54.2672 117.069 54.2672 117.069C54.2672 117.069 -0.950333 120.501 -4.01007 116.503H-4.01256Z" fill="#041F4A"/>
<path d="M110.76 111.617C110.76 111.617 112.12 108.906 111.439 107.127C110.757 105.349 107.902 103.106 103.959 103.106C100.016 103.106 99.3346 102.545 84.1058 102.265C68.6025 100.723 62.5329 99.8423 57.9957 102.265C53.4585 104.687 54.634 106.425 54.634 106.425C54.634 106.425 55.5424 108.911 55.0882 111.22C54.634 113.53 110.757 111.614 110.757 111.614L110.76 111.617Z" fill="url(#paint2_linear_146_12150)"/>
<path d="M172.878 110.832C172.878 110.832 173.178 103.699 162.117 104.316C151.056 104.934 145.617 105.869 141.085 105.681C136.553 105.493 129.662 105.122 122.864 104.278C116.066 103.433 113.073 105.488 112.347 106.744C111.621 108 111.282 110.023 111.282 110.023L172.878 110.832Z" fill="url(#paint3_linear_146_12150)"/>
<path d="M173.065 118.794C173.065 118.794 175.172 108.016 168.917 106.988C162.663 105.961 152.328 108.507 152.328 108.507C152.328 108.507 137.369 109.233 129.301 107.83C121.232 106.427 113.765 106.764 112.529 108.507C111.294 110.25 111.259 109.702 110.762 111.617C110.266 113.532 111.262 117.473 111.262 117.473C111.262 117.473 163.911 120.22 173.068 118.794H173.065Z" fill="#041F4A"/>
<path d="M54.377 116.83C54.377 116.83 54.6415 111.149 55.2779 108.507C55.1856 106.664 61.0355 104.37 63.8906 104.324C66.7457 104.278 75.5855 104.37 84.6973 106.147C93.7168 107.176 104.007 106.708 104.007 106.708C104.007 106.708 109.944 107.035 110.76 111.617C111.807 117.496 111.169 117.713 111.169 117.713C111.169 117.713 96.8938 119.901 54.377 116.83Z" fill="#041F4A"/>
<path d="M-15.8138 122.73C-15.8138 122.73 -17.0878 115.796 -9.89664 116.426C-2.70544 117.056 44.3465 114.952 49.7919 115.201C55.2373 115.451 101.484 115.201 104.318 115.201C107.151 115.201 126.44 114.635 149.347 116.91C167.644 115.772 177.885 117.687 177.885 117.687C177.885 117.687 183.189 117.298 183.088 126.101C182.986 134.904 -15.8138 122.73 -15.8138 122.73Z" fill="url(#paint4_linear_146_12150)"/>
<path d="M182.516 164C182.516 164 183.605 131.402 182.516 124.284C181.427 120.013 175.333 121.152 175.333 121.152C175.333 121.152 137.459 122.302 126.574 121.013H93.4888C93.4888 121.013 69.5462 119.452 40.1599 121.013C10.7736 122.574 -10.1222 119.156 -10.1222 119.156C-10.1222 119.156 -16 117.163 -16 127.413V164" fill="#041F4A"/>
<ellipse cx="101.923" cy="89.9109" rx="5.79208" ry="5.40594" fill="#041F4A"/>
</g>
<defs>
<radialGradient id="paint0_radial_146_12150" cx="0" cy="0" r="1" gradientUnits="userSpaceOnUse" gradientTransform="translate(82.1782 82) rotate(90) scale(78 110.178)">
<stop stop-color="white"/>
<stop offset="1" stop-color="white" stop-opacity="0"/>
</radialGradient>
<linearGradient id="paint1_linear_146_12150" x1="-6.1289" y1="99.9505" x2="53.7686" y2="100.676" gradientUnits="userSpaceOnUse">
<stop stop-color="#2C39AB"/>
<stop offset="0.166667" stop-color="#222C87"/>
<stop offset="0.505208" stop-color="#222C87"/>
<stop offset="0.875" stop-color="#222C87"/>
<stop offset="1" stop-color="#2C39AB"/>
</linearGradient>
<linearGradient id="paint2_linear_146_12150" x1="54.6084" y1="100.075" x2="110.276" y2="100.781" gradientUnits="userSpaceOnUse">
<stop stop-color="#2C39AB"/>
<stop offset="0.166667" stop-color="#222C87"/>
<stop offset="0.505208" stop-color="#222C87"/>
<stop offset="0.875" stop-color="#222C87"/>
<stop offset="1" stop-color="#2C39AB"/>
</linearGradient>
<linearGradient id="paint3_linear_146_12150" x1="111.402" y1="103.681" x2="171.396" y2="105.091" gradientUnits="userSpaceOnUse">
<stop stop-color="#2C39AB"/>
<stop offset="0.166667" stop-color="#222C87"/>
<stop offset="0.505208" stop-color="#222C87"/>
<stop offset="0.875" stop-color="#222C87"/>
<stop offset="1" stop-color="#2C39AB"/>
</linearGradient>
<linearGradient id="paint4_linear_146_12150" x1="-15.5131" y1="115.575" x2="178.103" y2="123.237" gradientUnits="userSpaceOnUse">
<stop stop-color="#2C39AB"/>
<stop offset="0.166667" stop-color="#222C87"/>
<stop offset="0.505208" stop-color="#222C87"/>
<stop offset="0.875" stop-color="#222C87"/>
<stop offset="1" stop-color="#2C39AB"/>
</linearGradient>
<clipPath id="clip0_146_12150">
<rect width="164" height="164" fill="white"/>
</clipPath>
</defs>
</svg>
