<svg width="276" height="167" viewBox="0 0 276 167" fill="none" xmlns="http://www.w3.org/2000/svg">
<g clip-path="url(#clip0_147_12226)">
<rect width="276" height="165.6" transform="translate(0 0.600037)" fill="#052962"/>
<g style="mix-blend-mode:overlay">
<ellipse cx="136.184" cy="83.4" rx="155.432" ry="110.037" fill="url(#paint0_radial_147_12226)"/>
</g>
<rect x="30.722" y="34.8095" width="209.233" height="116.505" fill="black"/>
<rect x="34.6304" y="38.6415" width="201.707" height="106.374" fill="#FBF6EF"/>
<rect x="198.56" y="147.696" width="29.3529" height="6.5127" rx="3.25635" fill="black"/>
<path d="M123.243 83.5706C123.533 87.4927 121.669 88.4732 120.701 88.4732C121.064 90.1075 123.243 89.9259 127.964 90.289C131.741 90.5795 134.501 89.1995 135.409 88.4732C133.835 87.5653 130.942 85.2411 131.959 83.2074C133.411 82.9169 135.348 78.9706 136.135 77.0337C136.68 74.0074 137.37 67.1922 135.772 64.1417C133.774 60.3285 130.869 59.9653 124.877 60.3285C117.178 60.3285 116.585 67.7127 117.251 71.4048C117.795 74.3101 119.756 80.8106 123.243 83.5706Z" fill="#69A4FF"/>
<path d="M118.885 77.5785C117.868 75.8354 116.887 71.4049 116.524 69.4075C116.524 64.7591 118.098 62.6285 118.885 62.1443C118.582 61.5391 118.376 59.7112 119.974 57.2417C121.572 54.7722 124.151 54.7601 125.24 55.0628C126.451 55.1233 129.126 56.007 130.143 59.0575C132.503 58.8759 137.587 63.0522 137.224 67.5917C136.861 72.1312 136.316 74.6733 134.137 78.3049C131.959 81.9364 129.235 82.917 125.24 82.5538C121.245 82.1906 120.156 79.7575 118.885 77.5785Z" fill="#041F4A"/>
<path d="M113.074 89.9259C108.281 90.7975 107.809 97.1891 108.172 100.276H146.303C146.243 98.0969 145.868 93.3033 144.851 91.5601C143.58 89.3812 139.04 87.9285 135.409 87.9285C133.23 89.5627 132.866 89.018 127.601 89.5627C123.388 89.9985 121.003 88.8969 120.338 88.2917C119.127 88.2917 115.98 88.6185 113.074 89.9259Z" fill="#0077B6"/>
<path d="M68.8184 74.7256V77.6308C77.97 79.5193 81.4684 78.1756 82.0737 77.2677C82.0132 76.4203 81.9647 74.5803 82.2553 73.9992C82.6184 73.2729 84.2526 71.094 84.2526 67.4624C85.8869 67.644 85.5237 66.1913 85.8869 64.0124C86.25 61.8335 85.7053 60.5624 84.7974 60.5624C85.3421 55.4782 84.4342 51.3019 84.2526 50.2124C84.0711 49.1229 84.2526 48.9414 82.2553 46.7624C80.2579 44.5835 78.2605 44.0387 72.6316 44.4019C65.0779 44.1114 62.1 48.3966 61.5553 50.5756C61.3737 52.3914 61.4463 57.4393 63.1895 63.1045C62.1727 63.6856 62.2816 65.0414 62.4632 65.6466C62.7658 67.1598 63.8069 70.1135 65.55 69.8229C65.9858 72.2924 67.9106 74.1203 68.8184 74.7256Z" fill="#69A4FF"/>
<path d="M161.772 92.4864V94.3943C163.857 95.929 169.115 95.1878 169.519 94.5916C169.479 94.0351 169.446 92.8268 169.64 92.4453C169.882 91.9683 171.407 90.1016 171.407 87.7169C172.497 87.8361 172.255 86.8822 172.497 85.4513C172.739 84.0204 172.376 83.1857 171.77 83.1857C172.134 79.847 171.528 77.1045 171.407 76.3891C171.286 75.6736 171.407 75.5544 170.076 74.1235C168.744 72.6927 167.413 72.3349 163.66 72.5734C158.624 72.3826 156.639 75.1967 156.276 76.6276C156.155 77.82 156.203 81.1348 157.365 84.8551C156.687 85.2367 156.76 86.127 156.881 86.5245C157.083 87.5181 157.777 89.4578 158.939 89.267C159.229 90.8886 161.166 92.089 161.772 92.4864Z" fill="#69A4FF"/>
<path d="M84.2527 68.3703C83.5263 73.5998 77.7763 75.0282 74.9921 75.0887C70.4527 75.6334 65.1869 71.4571 65.1869 68.915C65.1869 66.8814 63.4921 63.9519 62.6448 62.7414C62.1 61.7729 60.9379 58.6014 60.6474 53.6624C60.3569 48.7235 63.1895 46.0361 64.6421 45.3098C68.0921 44.0387 76.0816 42.1503 80.4395 44.765C85.8869 48.0334 85.5237 51.1203 84.979 57.4756C84.4342 63.8308 85.1606 61.8334 84.2527 68.3703Z" fill="#041F4A"/>
<path d="M114.576 103.597H45.3947C45.9395 92.8835 46.8473 89.9782 48.4816 87.7992C50.1158 85.6203 59.7395 82.3519 65.3684 81.2624C66.3852 82.5698 71.6026 83.2598 74.0842 83.4414C76.6263 83.5019 82.4731 83.1508 85.5237 81.2624C97.1447 83.9861 99.5052 85.2571 103.318 88.7071C106.369 91.4671 112.095 99.7835 114.576 103.597Z" fill="#506991"/>
<path d="M185.211 108.022H150.711C150.982 102.796 151.435 101.379 152.25 100.316C153.065 99.2532 157.864 97.6589 160.671 97.1274C161.178 97.7652 163.78 98.1018 165.018 98.1903C166.285 98.2199 169.201 98.0486 170.722 97.1274C176.518 98.4561 177.695 99.0761 179.596 100.759C181.118 102.105 183.973 106.162 185.211 108.022Z" fill="#052962"/>
<path d="M82.8 77.0861C78.4421 79.1198 70.9368 77.9335 67.7289 77.0861C67.4263 77.6308 66.5305 79.2287 65.3684 81.2624C66.0947 82.6737 68.0921 83.514 75.1737 83.8771C80.8389 84.1677 84.4342 82.1098 85.5237 81.2624C85.4026 81.0808 84.6884 79.9914 82.8 77.0861Z" fill="#0077B6"/>
<path d="M170.031 94.2948C167.361 95.7028 163.098 94.8814 161.133 94.2948C160.948 94.6719 160.937 95.7782 160.225 97.1862C160.67 98.1633 161.894 98.7451 166.232 98.9965C169.703 99.1977 171.724 97.9683 172.391 97.3816C171.846 97.7898 171.187 96.3062 170.031 94.2948Z" fill="#052962"/>
<path d="M222.789 95.6923C223.224 97.2902 222.547 115.117 222.789 118.204C211.954 118.204 193.155 124.015 182.115 124.015C181.97 119.802 181.812 96.8423 182.115 94.4213C182.115 93.6949 182.696 91.625 188.652 89.1555C196.097 86.0686 216.07 89.5186 218.975 90.0634C221.881 90.6081 222.244 93.695 222.789 95.6923Z" fill="#506991"/>
<path d="M201.362 49.644C209.933 49.7893 213.407 55.394 214.073 58.1782C218.068 70.1625 212.62 76.3361 216.252 81.4203C219.157 85.4877 220.489 89.5309 220.791 94.6756C221.094 97.0361 218.503 98.6703 205.72 100.849C192.937 103.028 190.831 97.8835 191.376 95.0388C191.92 89.4703 192.102 79.9677 188.47 71.9782C184.839 63.9888 186.957 57.3914 188.47 55.0914C188.997 53.7308 191.929 50.5478 195.742 51.6373C196.287 49.4583 199.007 49.6041 201.362 49.644Z" fill="#041F4A"/>
<path d="M162.114 91.6437C158.627 90.3364 156.533 83.1579 156.412 81.2211C154.415 73.7763 172.573 72.8684 172.028 80.6763C171.592 86.9227 170.587 90.7358 169.776 90.9537C168.626 91.68 165.6 92.9511 162.114 91.6437Z" fill="#041F4A"/>
<path d="M11.4377 105.273C11.4377 105.273 11.8426 95.217 22.4577 94.2946C34.7346 94.2946 50.2119 96.2738 50.2119 96.2738C50.2119 96.2738 76.0473 94.8212 85.1274 95.878C94.2074 96.9348 96.7459 100.628 97.3303 102.342C99.2738 106.824 97.1895 112.732 97.1895 112.732L11.4377 105.273Z" fill="url(#paint1_linear_147_12226)"/>
<path d="M14.5924 116.556C14.5924 116.556 8.83943 106.166 12.8672 102.901C16.8949 99.6366 24.954 96.6696 41.6424 101.122C52.8666 102.607 65.5273 100.232 65.5273 100.232C65.5273 100.232 82.2157 97.5594 93.1512 102.607C99.2139 105.276 96.8093 117.355 96.8093 117.355C96.8093 117.355 18.9123 122.196 14.5959 116.556H14.5924Z" fill="#041F4A"/>
<path d="M176.505 109.663C176.505 109.663 178.424 105.839 177.463 103.33C176.502 100.821 172.474 97.6575 166.911 97.6575C161.348 97.6575 160.387 96.8658 138.903 96.4699C117.032 94.2946 108.47 93.0526 102.069 96.4699C95.6685 99.8872 97.3268 102.339 97.3268 102.339C97.3268 102.339 98.6083 105.847 97.9676 109.104C97.3268 112.362 176.502 109.66 176.502 109.66L176.505 109.663Z" fill="url(#paint2_linear_147_12226)"/>
<path d="M264.137 108.556C264.137 108.556 264.56 98.4927 248.956 99.3643C233.352 100.236 225.68 101.554 219.286 101.289C212.892 101.024 203.172 100.501 193.581 99.3099C183.99 98.1187 179.769 101.017 178.744 102.789C177.72 104.561 177.241 107.416 177.241 107.416L264.137 108.556Z" fill="url(#paint3_linear_147_12226)"/>
<path d="M264.401 119.788C264.401 119.788 267.373 104.583 258.55 103.134C249.727 101.685 235.147 105.277 235.147 105.277C235.147 105.277 214.044 106.301 202.661 104.321C191.278 102.342 180.744 102.818 179.002 105.277C177.259 107.735 177.209 106.962 176.509 109.663C175.808 112.365 177.213 117.925 177.213 117.925C177.213 117.925 251.487 121.8 264.405 119.788H264.401Z" fill="#041F4A"/>
<path d="M96.9642 117.017C96.9642 117.017 97.3374 109.003 98.2352 105.276C98.1049 102.676 106.358 99.4405 110.385 99.3751C114.413 99.3098 126.884 99.4405 139.738 101.946C152.462 103.399 166.978 102.738 166.978 102.738C166.978 102.738 175.354 103.199 176.505 109.663C177.983 117.958 177.083 118.263 177.083 118.263C177.083 118.263 156.944 121.35 96.9642 117.017Z" fill="#041F4A"/>
<path d="M-2.05593 125.341C-2.05593 125.341 -3.85327 115.558 6.29156 116.448C16.4364 117.337 82.814 114.368 90.4959 114.72C98.1779 115.072 163.42 114.72 167.417 114.72C171.414 114.72 198.626 113.921 230.941 117.13C256.754 115.526 271.2 118.226 271.2 118.226C271.2 118.226 278.683 117.678 278.54 130.097C278.397 142.515 -2.05593 125.341 -2.05593 125.341Z" fill="url(#paint4_linear_147_12226)"/>
<path d="M277.858 166.563C277.858 166.563 279.397 132.627 277.858 125.217C276.32 120.771 267.713 121.957 267.713 121.957C267.713 121.957 214.216 123.153 198.842 121.812H152.109C152.109 121.812 118.29 120.187 76.7828 121.812C35.2752 123.436 5.76017 119.878 5.76017 119.878C5.76017 119.878 -2.54211 117.804 -2.54211 128.474V166.563" fill="#041F4A"/>
<ellipse cx="164.038" cy="79.0421" rx="8.17105" ry="7.62632" fill="#041F4A"/>
</g>
<defs>
<radialGradient id="paint0_radial_147_12226" cx="0" cy="0" r="1" gradientUnits="userSpaceOnUse" gradientTransform="translate(136.184 83.4) rotate(90) scale(110.037 155.432)">
<stop stop-color="white"/>
<stop offset="1" stop-color="white" stop-opacity="0"/>
</radialGradient>
<linearGradient id="paint1_linear_147_12226" x1="11.6068" y1="93.2053" x2="96.1059" y2="94.2293" gradientUnits="userSpaceOnUse">
<stop stop-color="#2C39AB"/>
<stop offset="0.166667" stop-color="#222C87"/>
<stop offset="0.505208" stop-color="#222C87"/>
<stop offset="0.875" stop-color="#222C87"/>
<stop offset="1" stop-color="#2C39AB"/>
</linearGradient>
<linearGradient id="paint2_linear_147_12226" x1="97.2907" y1="93.3806" x2="175.823" y2="94.3772" gradientUnits="userSpaceOnUse">
<stop stop-color="#2C39AB"/>
<stop offset="0.166667" stop-color="#222C87"/>
<stop offset="0.505208" stop-color="#222C87"/>
<stop offset="0.875" stop-color="#222C87"/>
<stop offset="1" stop-color="#2C39AB"/>
</linearGradient>
<linearGradient id="paint3_linear_147_12226" x1="177.41" y1="98.468" x2="262.047" y2="100.457" gradientUnits="userSpaceOnUse">
<stop stop-color="#2C39AB"/>
<stop offset="0.166667" stop-color="#222C87"/>
<stop offset="0.505208" stop-color="#222C87"/>
<stop offset="0.875" stop-color="#222C87"/>
<stop offset="1" stop-color="#2C39AB"/>
</linearGradient>
<linearGradient id="paint4_linear_147_12226" x1="-1.63179" y1="115.248" x2="271.508" y2="126.056" gradientUnits="userSpaceOnUse">
<stop stop-color="#2C39AB"/>
<stop offset="0.166667" stop-color="#222C87"/>
<stop offset="0.505208" stop-color="#222C87"/>
<stop offset="0.875" stop-color="#222C87"/>
<stop offset="1" stop-color="#2C39AB"/>
</linearGradient>
<clipPath id="clip0_147_12226">
<rect width="276" height="165.6" fill="white" transform="translate(0 0.600037)"/>
</clipPath>
</defs>
</svg>
